<mxfile host="Electron" agent="Mozilla/5.0 (Windows NT 10.0; Win64; x64) AppleWebKit/537.36 (KHTML, like Gecko) draw.io/24.7.5 Chrome/126.0.6478.183 Electron/31.3.0 Safari/537.36" version="24.7.5">
  <diagram name="PÃ¡gina-1" id="d3g10q3LC-BKgwzDOU1b">
    <mxGraphModel dx="5185" dy="2210" grid="1" gridSize="10" guides="1" tooltips="1" connect="1" arrows="1" fold="1" page="0" pageScale="1" pageWidth="827" pageHeight="1169" background="none" math="0" shadow="0">
      <root>
        <mxCell id="0" />
        <mxCell id="1" parent="0" />
        <mxCell id="c03xcksOskagx5v2gtVA-2" value="" style="rounded=0;whiteSpace=wrap;html=1;movable=0;resizable=0;rotatable=0;deletable=0;editable=0;locked=1;connectable=0;" parent="1" vertex="1">
          <mxGeometry x="240" y="190" width="1280" height="720" as="geometry" />
        </mxCell>
        <mxCell id="c03xcksOskagx5v2gtVA-3" value="" style="rounded=0;whiteSpace=wrap;html=1;movable=0;resizable=0;rotatable=0;deletable=0;editable=0;locked=1;connectable=0;" parent="1" vertex="1">
          <mxGeometry x="250" y="195" width="10" height="10" as="geometry" />
        </mxCell>
        <mxCell id="c03xcksOskagx5v2gtVA-4" value="Balines Mojados" style="text;html=1;strokeColor=none;fillColor=none;align=center;verticalAlign=middle;whiteSpace=wrap;rounded=0;fontSize=11;movable=0;resizable=0;rotatable=0;deletable=0;editable=0;locked=1;connectable=0;" parent="1" vertex="1">
          <mxGeometry x="260" y="192.5" width="90" height="15" as="geometry" />
        </mxCell>
        <mxCell id="c03xcksOskagx5v2gtVA-5" value="" style="group;movable=0;resizable=0;rotatable=0;deletable=0;editable=0;locked=1;connectable=0;" parent="1" vertex="1" connectable="0">
          <mxGeometry x="1400" y="190" width="40" height="20" as="geometry" />
        </mxCell>
        <mxCell id="c03xcksOskagx5v2gtVA-6" value="" style="rounded=0;whiteSpace=wrap;html=1;movable=0;resizable=0;rotatable=0;deletable=0;editable=0;locked=1;connectable=0;" parent="c03xcksOskagx5v2gtVA-5" vertex="1">
          <mxGeometry width="40" height="20" as="geometry" />
        </mxCell>
        <mxCell id="c03xcksOskagx5v2gtVA-7" value="" style="endArrow=none;html=1;rounded=0;movable=0;resizable=0;rotatable=0;deletable=0;editable=0;locked=1;connectable=0;" parent="c03xcksOskagx5v2gtVA-5" edge="1">
          <mxGeometry width="50" height="50" relative="1" as="geometry">
            <mxPoint x="15" y="9.879999999999995" as="sourcePoint" />
            <mxPoint x="25" y="9.879999999999995" as="targetPoint" />
          </mxGeometry>
        </mxCell>
        <mxCell id="c03xcksOskagx5v2gtVA-8" value="" style="group;movable=0;resizable=0;rotatable=0;deletable=0;editable=0;locked=1;connectable=0;" parent="1" vertex="1" connectable="0">
          <mxGeometry x="1440" y="190" width="40" height="20" as="geometry" />
        </mxCell>
        <mxCell id="c03xcksOskagx5v2gtVA-9" value="" style="rounded=0;whiteSpace=wrap;html=1;movable=0;resizable=0;rotatable=0;deletable=0;editable=0;locked=1;connectable=0;" parent="c03xcksOskagx5v2gtVA-8" vertex="1">
          <mxGeometry width="40" height="20" as="geometry" />
        </mxCell>
        <mxCell id="c03xcksOskagx5v2gtVA-10" value="" style="rounded=0;whiteSpace=wrap;html=1;movable=0;resizable=0;rotatable=0;deletable=0;editable=0;locked=1;connectable=0;" parent="c03xcksOskagx5v2gtVA-8" vertex="1">
          <mxGeometry x="15" y="5" width="10" height="10" as="geometry" />
        </mxCell>
        <mxCell id="c03xcksOskagx5v2gtVA-11" value="" style="group;movable=0;resizable=0;rotatable=0;deletable=0;editable=0;locked=1;connectable=0;" parent="1" vertex="1" connectable="0">
          <mxGeometry x="1480" y="190" width="40" height="20" as="geometry" />
        </mxCell>
        <mxCell id="c03xcksOskagx5v2gtVA-12" value="" style="rounded=0;whiteSpace=wrap;html=1;movable=0;resizable=0;rotatable=0;deletable=0;editable=0;locked=1;connectable=0;" parent="c03xcksOskagx5v2gtVA-11" vertex="1">
          <mxGeometry width="40" height="20" as="geometry" />
        </mxCell>
        <mxCell id="c03xcksOskagx5v2gtVA-13" value="" style="group;movable=0;resizable=0;rotatable=0;deletable=0;editable=0;locked=1;connectable=0;" parent="c03xcksOskagx5v2gtVA-11" vertex="1" connectable="0">
          <mxGeometry x="15" y="5" width="10" height="10" as="geometry" />
        </mxCell>
        <mxCell id="c03xcksOskagx5v2gtVA-14" value="" style="endArrow=none;html=1;rounded=0;movable=0;resizable=0;rotatable=0;deletable=0;editable=0;locked=1;connectable=0;" parent="c03xcksOskagx5v2gtVA-13" edge="1">
          <mxGeometry width="50" height="50" relative="1" as="geometry">
            <mxPoint y="10" as="sourcePoint" />
            <mxPoint x="10" as="targetPoint" />
          </mxGeometry>
        </mxCell>
        <mxCell id="c03xcksOskagx5v2gtVA-15" value="" style="endArrow=none;html=1;rounded=0;movable=0;resizable=0;rotatable=0;deletable=0;editable=0;locked=1;connectable=0;" parent="c03xcksOskagx5v2gtVA-13" edge="1">
          <mxGeometry width="50" height="50" relative="1" as="geometry">
            <mxPoint x="10" y="10" as="sourcePoint" />
            <mxPoint as="targetPoint" />
          </mxGeometry>
        </mxCell>
        <mxCell id="c03xcksOskagx5v2gtVA-16" value="" style="endArrow=none;html=1;rounded=0;movable=0;resizable=0;rotatable=0;deletable=0;editable=0;locked=1;connectable=0;" parent="1" edge="1">
          <mxGeometry width="50" height="50" relative="1" as="geometry">
            <mxPoint x="240" y="210" as="sourcePoint" />
            <mxPoint x="1520" y="210" as="targetPoint" />
          </mxGeometry>
        </mxCell>
        <mxCell id="c03xcksOskagx5v2gtVA-19" value="" style="rounded=0;whiteSpace=wrap;html=1;movable=0;resizable=0;rotatable=0;deletable=0;editable=0;locked=1;connectable=0;" parent="1" vertex="1">
          <mxGeometry x="640" y="220" width="480" height="680" as="geometry" />
        </mxCell>
        <mxCell id="c03xcksOskagx5v2gtVA-71" value="" style="group;movable=0;resizable=0;rotatable=0;deletable=0;editable=0;locked=1;connectable=0;" parent="1" vertex="1" connectable="0">
          <mxGeometry x="240" y="1530" width="1280" height="720" as="geometry" />
        </mxCell>
        <mxCell id="c03xcksOskagx5v2gtVA-56" value="" style="rounded=0;whiteSpace=wrap;html=1;movable=0;resizable=0;rotatable=0;deletable=0;editable=0;locked=1;connectable=0;" parent="c03xcksOskagx5v2gtVA-71" vertex="1">
          <mxGeometry width="1280" height="720" as="geometry" />
        </mxCell>
        <mxCell id="c03xcksOskagx5v2gtVA-57" value="" style="rounded=0;whiteSpace=wrap;html=1;movable=0;resizable=0;rotatable=0;deletable=0;editable=0;locked=1;connectable=0;" parent="c03xcksOskagx5v2gtVA-71" vertex="1">
          <mxGeometry x="10" y="5" width="10" height="10" as="geometry" />
        </mxCell>
        <mxCell id="c03xcksOskagx5v2gtVA-58" value="Balines Mojados" style="text;html=1;strokeColor=none;fillColor=none;align=center;verticalAlign=middle;whiteSpace=wrap;rounded=0;fontSize=11;movable=0;resizable=0;rotatable=0;deletable=0;editable=0;locked=1;connectable=0;" parent="c03xcksOskagx5v2gtVA-71" vertex="1">
          <mxGeometry x="20" y="2.5" width="90" height="15" as="geometry" />
        </mxCell>
        <mxCell id="c03xcksOskagx5v2gtVA-70" value="" style="endArrow=none;html=1;rounded=0;movable=0;resizable=0;rotatable=0;deletable=0;editable=0;locked=1;connectable=0;" parent="c03xcksOskagx5v2gtVA-71" edge="1">
          <mxGeometry width="50" height="50" relative="1" as="geometry">
            <mxPoint y="20" as="sourcePoint" />
            <mxPoint x="1280" y="20" as="targetPoint" />
          </mxGeometry>
        </mxCell>
        <mxCell id="c03xcksOskagx5v2gtVA-62" value="" style="group;movable=0;resizable=0;rotatable=0;deletable=0;editable=0;locked=1;connectable=0;" parent="c03xcksOskagx5v2gtVA-71" vertex="1" connectable="0">
          <mxGeometry x="1200" width="40" height="20" as="geometry" />
        </mxCell>
        <mxCell id="c03xcksOskagx5v2gtVA-63" value="" style="rounded=0;whiteSpace=wrap;html=1;movable=0;resizable=0;rotatable=0;deletable=0;editable=0;locked=1;connectable=0;" parent="c03xcksOskagx5v2gtVA-62" vertex="1">
          <mxGeometry width="40" height="20" as="geometry" />
        </mxCell>
        <mxCell id="c03xcksOskagx5v2gtVA-64" value="" style="rounded=0;whiteSpace=wrap;html=1;movable=0;resizable=0;rotatable=0;deletable=0;editable=0;locked=1;connectable=0;" parent="c03xcksOskagx5v2gtVA-62" vertex="1">
          <mxGeometry x="15" y="5" width="10" height="10" as="geometry" />
        </mxCell>
        <mxCell id="c03xcksOskagx5v2gtVA-59" value="" style="group;movable=0;resizable=0;rotatable=0;deletable=0;editable=0;locked=1;connectable=0;" parent="c03xcksOskagx5v2gtVA-71" vertex="1" connectable="0">
          <mxGeometry x="1160" width="40" height="20" as="geometry" />
        </mxCell>
        <mxCell id="c03xcksOskagx5v2gtVA-60" value="" style="rounded=0;whiteSpace=wrap;html=1;movable=0;resizable=0;rotatable=0;deletable=0;editable=0;locked=1;connectable=0;" parent="c03xcksOskagx5v2gtVA-59" vertex="1">
          <mxGeometry width="40" height="20" as="geometry" />
        </mxCell>
        <mxCell id="c03xcksOskagx5v2gtVA-61" value="" style="endArrow=none;html=1;rounded=0;movable=0;resizable=0;rotatable=0;deletable=0;editable=0;locked=1;connectable=0;" parent="c03xcksOskagx5v2gtVA-59" edge="1">
          <mxGeometry width="50" height="50" relative="1" as="geometry">
            <mxPoint x="15" y="9.879999999999995" as="sourcePoint" />
            <mxPoint x="25" y="9.879999999999995" as="targetPoint" />
          </mxGeometry>
        </mxCell>
        <mxCell id="c03xcksOskagx5v2gtVA-65" value="" style="group;movable=0;resizable=0;rotatable=0;deletable=0;editable=0;locked=1;connectable=0;" parent="c03xcksOskagx5v2gtVA-71" vertex="1" connectable="0">
          <mxGeometry x="1240" width="40" height="20" as="geometry" />
        </mxCell>
        <mxCell id="c03xcksOskagx5v2gtVA-66" value="" style="rounded=0;whiteSpace=wrap;html=1;movable=0;resizable=0;rotatable=0;deletable=0;editable=0;locked=1;connectable=0;" parent="c03xcksOskagx5v2gtVA-65" vertex="1">
          <mxGeometry width="40" height="20" as="geometry" />
        </mxCell>
        <mxCell id="c03xcksOskagx5v2gtVA-67" value="" style="group;movable=0;resizable=0;rotatable=0;deletable=0;editable=0;locked=1;connectable=0;" parent="c03xcksOskagx5v2gtVA-65" vertex="1" connectable="0">
          <mxGeometry x="15" y="5" width="10" height="10" as="geometry" />
        </mxCell>
        <mxCell id="c03xcksOskagx5v2gtVA-68" value="" style="endArrow=none;html=1;rounded=0;movable=0;resizable=0;rotatable=0;deletable=0;editable=0;locked=1;connectable=0;" parent="c03xcksOskagx5v2gtVA-67" edge="1">
          <mxGeometry width="50" height="50" relative="1" as="geometry">
            <mxPoint y="10" as="sourcePoint" />
            <mxPoint x="10" as="targetPoint" />
          </mxGeometry>
        </mxCell>
        <mxCell id="c03xcksOskagx5v2gtVA-69" value="" style="endArrow=none;html=1;rounded=0;movable=0;resizable=0;rotatable=0;deletable=0;editable=0;locked=1;connectable=0;" parent="c03xcksOskagx5v2gtVA-67" edge="1">
          <mxGeometry width="50" height="50" relative="1" as="geometry">
            <mxPoint x="10" y="10" as="sourcePoint" />
            <mxPoint as="targetPoint" />
          </mxGeometry>
        </mxCell>
        <mxCell id="c03xcksOskagx5v2gtVA-20" value="BIENVENIDO" style="text;html=1;align=center;verticalAlign=middle;whiteSpace=wrap;rounded=0;fontSize=40;movable=0;resizable=0;rotatable=0;deletable=0;editable=0;locked=1;connectable=0;" parent="1" vertex="1">
          <mxGeometry x="745" y="270" width="270" height="60" as="geometry" />
        </mxCell>
        <mxCell id="c03xcksOskagx5v2gtVA-22" value="Nombre de empleado" style="text;html=1;align=center;verticalAlign=middle;whiteSpace=wrap;rounded=0;fontSize=22;movable=0;resizable=0;rotatable=0;deletable=0;editable=0;locked=1;connectable=0;" parent="1" vertex="1">
          <mxGeometry x="767.5" y="390" width="225" height="40" as="geometry" />
        </mxCell>
        <mxCell id="c03xcksOskagx5v2gtVA-24" value="Codigo de seguridad" style="text;html=1;align=center;verticalAlign=middle;whiteSpace=wrap;rounded=0;fontSize=22;movable=0;resizable=0;rotatable=0;deletable=0;editable=0;locked=1;connectable=0;" parent="1" vertex="1">
          <mxGeometry x="750" y="550" width="260" height="60" as="geometry" />
        </mxCell>
        <mxCell id="c03xcksOskagx5v2gtVA-26" value="" style="rounded=0;whiteSpace=wrap;html=1;movable=0;resizable=0;rotatable=0;deletable=0;editable=0;locked=1;connectable=0;" parent="1" vertex="1">
          <mxGeometry x="700" y="450" width="360" height="40" as="geometry" />
        </mxCell>
        <mxCell id="c03xcksOskagx5v2gtVA-27" value="" style="rounded=0;whiteSpace=wrap;html=1;movable=0;resizable=0;rotatable=0;deletable=0;editable=0;locked=1;connectable=0;" parent="1" vertex="1">
          <mxGeometry x="700" y="640" width="360" height="40" as="geometry" />
        </mxCell>
        <mxCell id="joK4nO-dzWOsHn-svf8Y-19" style="edgeStyle=orthogonalEdgeStyle;rounded=0;orthogonalLoop=1;jettySize=auto;html=1;strokeWidth=5;fillColor=#6a00ff;strokeColor=#3700CC;movable=0;resizable=0;rotatable=0;deletable=0;editable=0;locked=1;connectable=0;" parent="1" source="c03xcksOskagx5v2gtVA-28" target="c03xcksOskagx5v2gtVA-41" edge="1">
          <mxGeometry relative="1" as="geometry" />
        </mxCell>
        <mxCell id="c03xcksOskagx5v2gtVA-28" value="INICIAR SESION" style="rounded=0;whiteSpace=wrap;html=1;movable=0;resizable=0;rotatable=0;deletable=0;editable=0;locked=1;connectable=0;" parent="1" vertex="1">
          <mxGeometry x="780" y="770" width="200" height="40" as="geometry" />
        </mxCell>
        <mxCell id="c03xcksOskagx5v2gtVA-38" value="Se cierra el programa" style="rounded=0;whiteSpace=wrap;html=1;movable=0;resizable=0;rotatable=0;deletable=0;editable=0;locked=1;connectable=0;" parent="1" vertex="1">
          <mxGeometry x="1560" y="130" width="160" height="20" as="geometry" />
        </mxCell>
        <mxCell id="c03xcksOskagx5v2gtVA-35" style="edgeStyle=orthogonalEdgeStyle;curved=1;rounded=0;orthogonalLoop=1;jettySize=auto;html=1;entryX=0;entryY=0.5;entryDx=0;entryDy=0;movable=0;resizable=0;rotatable=0;deletable=0;editable=0;locked=1;connectable=0;" parent="1" source="c03xcksOskagx5v2gtVA-12" target="c03xcksOskagx5v2gtVA-38" edge="1">
          <mxGeometry relative="1" as="geometry">
            <mxPoint x="1500" y="60" as="targetPoint" />
            <Array as="points">
              <mxPoint x="1500" y="140" />
            </Array>
          </mxGeometry>
        </mxCell>
        <mxCell id="c03xcksOskagx5v2gtVA-39" value="Fullscreen" style="rounded=0;whiteSpace=wrap;html=1;movable=0;resizable=0;rotatable=0;deletable=0;editable=0;locked=1;connectable=0;" parent="1" vertex="1">
          <mxGeometry x="1540" y="100" width="160" height="20" as="geometry" />
        </mxCell>
        <mxCell id="c03xcksOskagx5v2gtVA-36" style="edgeStyle=orthogonalEdgeStyle;curved=1;rounded=0;orthogonalLoop=1;jettySize=auto;html=1;entryX=0;entryY=0.5;entryDx=0;entryDy=0;exitX=0.5;exitY=0;exitDx=0;exitDy=0;movable=0;resizable=0;rotatable=0;deletable=0;editable=0;locked=1;connectable=0;" parent="1" source="c03xcksOskagx5v2gtVA-9" target="c03xcksOskagx5v2gtVA-39" edge="1">
          <mxGeometry relative="1" as="geometry">
            <mxPoint x="1460" y="60" as="targetPoint" />
            <Array as="points">
              <mxPoint x="1460" y="110" />
            </Array>
          </mxGeometry>
        </mxCell>
        <mxCell id="c03xcksOskagx5v2gtVA-40" value="Minimiza la ventana" style="rounded=0;whiteSpace=wrap;html=1;movable=0;resizable=0;rotatable=0;deletable=0;editable=0;locked=1;connectable=0;" parent="1" vertex="1">
          <mxGeometry x="1520" y="70" width="160" height="20" as="geometry" />
        </mxCell>
        <mxCell id="c03xcksOskagx5v2gtVA-37" style="edgeStyle=orthogonalEdgeStyle;curved=1;rounded=0;orthogonalLoop=1;jettySize=auto;html=1;entryX=0;entryY=0.5;entryDx=0;entryDy=0;movable=0;resizable=0;rotatable=0;deletable=0;editable=0;locked=1;connectable=0;" parent="1" source="c03xcksOskagx5v2gtVA-6" target="c03xcksOskagx5v2gtVA-40" edge="1">
          <mxGeometry relative="1" as="geometry">
            <mxPoint x="1420" y="60" as="targetPoint" />
            <Array as="points">
              <mxPoint x="1420" y="80" />
            </Array>
          </mxGeometry>
        </mxCell>
        <mxCell id="c03xcksOskagx5v2gtVA-46" style="edgeStyle=orthogonalEdgeStyle;curved=1;rounded=0;orthogonalLoop=1;jettySize=auto;html=1;entryX=0.5;entryY=0;entryDx=0;entryDy=0;fillColor=#60a917;strokeColor=#2D7600;strokeWidth=5;movable=0;resizable=0;rotatable=0;deletable=0;editable=0;locked=1;connectable=0;" parent="1" source="c03xcksOskagx5v2gtVA-41" target="c03xcksOskagx5v2gtVA-44" edge="1">
          <mxGeometry relative="1" as="geometry">
            <Array as="points">
              <mxPoint x="880" y="1120" />
              <mxPoint x="880" y="1120" />
            </Array>
          </mxGeometry>
        </mxCell>
        <mxCell id="c03xcksOskagx5v2gtVA-51" style="edgeStyle=orthogonalEdgeStyle;curved=1;rounded=0;orthogonalLoop=1;jettySize=auto;html=1;entryX=1;entryY=0.5;entryDx=0;entryDy=0;fillColor=#d80073;strokeColor=#A50040;strokeWidth=5;movable=0;resizable=0;rotatable=0;deletable=0;editable=0;locked=1;connectable=0;" parent="1" source="c03xcksOskagx5v2gtVA-41" target="c03xcksOskagx5v2gtVA-49" edge="1">
          <mxGeometry relative="1" as="geometry" />
        </mxCell>
        <mxCell id="c03xcksOskagx5v2gtVA-41" value="Confirmacion de credenciales" style="rhombus;whiteSpace=wrap;html=1;fillColor=#6a00ff;fontColor=#ffffff;strokeColor=#3700CC;movable=0;resizable=0;rotatable=0;deletable=0;editable=0;locked=1;connectable=0;" parent="1" vertex="1">
          <mxGeometry x="820" y="920" width="120" height="110" as="geometry" />
        </mxCell>
        <mxCell id="c03xcksOskagx5v2gtVA-47" value="" style="group;fillColor=#60a917;fontColor=#ffffff;strokeColor=#2D7600;movable=0;resizable=0;rotatable=0;deletable=0;editable=0;locked=1;connectable=0;" parent="1" vertex="1" connectable="0">
          <mxGeometry x="820" y="1140" width="120" height="60" as="geometry" />
        </mxCell>
        <mxCell id="c03xcksOskagx5v2gtVA-44" value="" style="rounded=0;whiteSpace=wrap;html=1;fillColor=#60a917;fontColor=#ffffff;strokeColor=#2D7600;movable=0;resizable=0;rotatable=0;deletable=0;editable=0;locked=1;connectable=0;" parent="c03xcksOskagx5v2gtVA-47" vertex="1">
          <mxGeometry width="120" height="60" as="geometry" />
        </mxCell>
        <mxCell id="c03xcksOskagx5v2gtVA-43" value="CORRECTOS" style="text;html=1;align=center;verticalAlign=middle;whiteSpace=wrap;rounded=0;movable=0;resizable=0;rotatable=0;deletable=0;editable=0;locked=1;connectable=0;" parent="c03xcksOskagx5v2gtVA-47" vertex="1">
          <mxGeometry x="10" y="10" width="100" height="40" as="geometry" />
        </mxCell>
        <mxCell id="c03xcksOskagx5v2gtVA-48" value="" style="group;fillColor=#a20025;fontColor=#ffffff;strokeColor=#6F0000;container=0;movable=0;resizable=0;rotatable=0;deletable=0;editable=0;locked=1;connectable=0;" parent="1" vertex="1" connectable="0">
          <mxGeometry x="580" y="945" width="120" height="60" as="geometry" />
        </mxCell>
        <mxCell id="c03xcksOskagx5v2gtVA-52" style="edgeStyle=orthogonalEdgeStyle;curved=1;rounded=0;orthogonalLoop=1;jettySize=auto;html=1;entryX=0;entryY=0.5;entryDx=0;entryDy=0;exitX=0;exitY=0.5;exitDx=0;exitDy=0;fillColor=#d80073;strokeColor=#A50040;strokeWidth=5;movable=0;resizable=0;rotatable=0;deletable=0;editable=0;locked=1;connectable=0;" parent="1" source="c03xcksOskagx5v2gtVA-49" target="c03xcksOskagx5v2gtVA-2" edge="1">
          <mxGeometry relative="1" as="geometry">
            <Array as="points">
              <mxPoint x="80" y="975" />
              <mxPoint x="80" y="550" />
            </Array>
          </mxGeometry>
        </mxCell>
        <mxCell id="c03xcksOskagx5v2gtVA-89" value="" style="rounded=0;whiteSpace=wrap;html=1;movable=0;resizable=0;rotatable=0;deletable=0;editable=0;locked=1;connectable=0;" parent="1" vertex="1">
          <mxGeometry x="740" y="1570" width="280" height="60" as="geometry" />
        </mxCell>
        <mxCell id="c03xcksOskagx5v2gtVA-90" value="SUCURSALES" style="text;html=1;align=center;verticalAlign=middle;whiteSpace=wrap;rounded=0;fontSize=32;movable=0;resizable=0;rotatable=0;deletable=0;editable=0;locked=1;connectable=0;" parent="1" vertex="1">
          <mxGeometry x="750" y="1585" width="260" height="30" as="geometry" />
        </mxCell>
        <mxCell id="c03xcksOskagx5v2gtVA-99" value="" style="rounded=0;whiteSpace=wrap;html=1;movable=0;resizable=0;rotatable=0;deletable=0;editable=0;locked=1;connectable=0;" parent="1" vertex="1">
          <mxGeometry x="320" y="1670" width="200" height="260" as="geometry" />
        </mxCell>
        <mxCell id="c03xcksOskagx5v2gtVA-100" value="Flores" style="text;html=1;align=center;verticalAlign=middle;whiteSpace=wrap;rounded=0;fontSize=25;movable=0;resizable=0;rotatable=0;deletable=0;editable=0;locked=1;connectable=0;" parent="1" vertex="1">
          <mxGeometry x="330" y="1825" width="180" height="30" as="geometry" />
        </mxCell>
        <mxCell id="c03xcksOskagx5v2gtVA-101" value="" style="endArrow=none;html=1;rounded=0;curved=1;movable=0;resizable=0;rotatable=0;deletable=0;editable=0;locked=1;connectable=0;" parent="1" edge="1">
          <mxGeometry width="50" height="50" relative="1" as="geometry">
            <mxPoint x="320" y="1860" as="sourcePoint" />
            <mxPoint x="520" y="1860" as="targetPoint" />
          </mxGeometry>
        </mxCell>
        <mxCell id="c03xcksOskagx5v2gtVA-102" value="Av. Rivadavia&lt;div&gt;1890&lt;/div&gt;" style="text;html=1;align=center;verticalAlign=middle;whiteSpace=wrap;rounded=0;movable=0;resizable=0;rotatable=0;deletable=0;editable=0;locked=1;connectable=0;" parent="1" vertex="1">
          <mxGeometry x="365" y="1865" width="110" height="30" as="geometry" />
        </mxCell>
        <mxCell id="c03xcksOskagx5v2gtVA-103" value="" style="rounded=0;whiteSpace=wrap;html=1;movable=0;resizable=0;rotatable=0;deletable=0;editable=0;locked=1;connectable=0;" parent="1" vertex="1">
          <mxGeometry x="370" y="1900" width="100" height="20" as="geometry" />
        </mxCell>
        <mxCell id="c03xcksOskagx5v2gtVA-277" style="edgeStyle=orthogonalEdgeStyle;curved=1;rounded=0;orthogonalLoop=1;jettySize=auto;html=1;strokeWidth=5;fillColor=#f0a30a;strokeColor=#BD7000;endArrow=none;endFill=0;exitX=0.5;exitY=1;exitDx=0;exitDy=0;movable=0;resizable=0;rotatable=0;deletable=0;editable=0;locked=1;connectable=0;" parent="1" source="c03xcksOskagx5v2gtVA-104" edge="1">
          <mxGeometry relative="1" as="geometry">
            <mxPoint x="880" y="2380" as="targetPoint" />
            <Array as="points">
              <mxPoint x="420" y="1950" />
              <mxPoint x="390" y="1950" />
              <mxPoint x="390" y="2380" />
            </Array>
          </mxGeometry>
        </mxCell>
        <mxCell id="c03xcksOskagx5v2gtVA-104" value="Reservas" style="text;html=1;align=center;verticalAlign=middle;whiteSpace=wrap;rounded=0;movable=0;resizable=0;rotatable=0;deletable=0;editable=0;locked=1;connectable=0;" parent="1" vertex="1">
          <mxGeometry x="390" y="1900" width="60" height="20" as="geometry" />
        </mxCell>
        <mxCell id="c03xcksOskagx5v2gtVA-145" value="" style="sketch=0;outlineConnect=0;fontColor=#232F3E;gradientColor=none;fillColor=#ED7100;strokeColor=none;dashed=0;verticalLabelPosition=bottom;verticalAlign=top;align=center;html=1;fontSize=12;fontStyle=0;pointerEvents=1;shape=mxgraph.aws4.container_registry_image;movable=0;resizable=0;rotatable=0;deletable=0;editable=0;locked=1;connectable=0;" parent="1" vertex="1">
          <mxGeometry x="345" y="1680" width="150" height="140" as="geometry" />
        </mxCell>
        <mxCell id="c03xcksOskagx5v2gtVA-146" value="" style="rounded=0;whiteSpace=wrap;html=1;movable=0;resizable=0;rotatable=0;deletable=0;editable=0;locked=1;connectable=0;" parent="1" vertex="1">
          <mxGeometry x="550" y="1670" width="200" height="260" as="geometry" />
        </mxCell>
        <mxCell id="c03xcksOskagx5v2gtVA-147" value="Chacarita" style="text;html=1;align=center;verticalAlign=middle;whiteSpace=wrap;rounded=0;fontSize=25;movable=0;resizable=0;rotatable=0;deletable=0;editable=0;locked=1;connectable=0;" parent="1" vertex="1">
          <mxGeometry x="560" y="1825" width="180" height="30" as="geometry" />
        </mxCell>
        <mxCell id="c03xcksOskagx5v2gtVA-148" value="" style="endArrow=none;html=1;rounded=0;curved=1;movable=0;resizable=0;rotatable=0;deletable=0;editable=0;locked=1;connectable=0;" parent="1" edge="1">
          <mxGeometry width="50" height="50" relative="1" as="geometry">
            <mxPoint x="550" y="1860" as="sourcePoint" />
            <mxPoint x="750" y="1860" as="targetPoint" />
          </mxGeometry>
        </mxCell>
        <mxCell id="c03xcksOskagx5v2gtVA-149" value="Av. Elcano&lt;div&gt;1456&lt;/div&gt;" style="text;html=1;align=center;verticalAlign=middle;whiteSpace=wrap;rounded=0;movable=0;resizable=0;rotatable=0;deletable=0;editable=0;locked=1;connectable=0;" parent="1" vertex="1">
          <mxGeometry x="595" y="1865" width="110" height="30" as="geometry" />
        </mxCell>
        <mxCell id="c03xcksOskagx5v2gtVA-150" value="" style="rounded=0;whiteSpace=wrap;html=1;movable=0;resizable=0;rotatable=0;deletable=0;editable=0;locked=1;connectable=0;" parent="1" vertex="1">
          <mxGeometry x="600" y="1900" width="100" height="20" as="geometry" />
        </mxCell>
        <mxCell id="c03xcksOskagx5v2gtVA-274" style="edgeStyle=orthogonalEdgeStyle;curved=1;rounded=0;orthogonalLoop=1;jettySize=auto;html=1;strokeWidth=5;fillColor=#f0a30a;strokeColor=#BD7000;endArrow=none;endFill=0;exitX=0.5;exitY=1;exitDx=0;exitDy=0;movable=0;resizable=0;rotatable=0;deletable=0;editable=0;locked=1;connectable=0;" parent="1" source="c03xcksOskagx5v2gtVA-151" edge="1">
          <mxGeometry relative="1" as="geometry">
            <mxPoint x="880" y="2380" as="targetPoint" />
            <mxPoint x="650" y="1940" as="sourcePoint" />
            <Array as="points">
              <mxPoint x="650" y="1940" />
              <mxPoint x="600" y="1940" />
              <mxPoint x="600" y="2380" />
            </Array>
          </mxGeometry>
        </mxCell>
        <mxCell id="c03xcksOskagx5v2gtVA-151" value="Reservas" style="text;html=1;align=center;verticalAlign=middle;whiteSpace=wrap;rounded=0;movable=0;resizable=0;rotatable=0;deletable=0;editable=0;locked=1;connectable=0;" parent="1" vertex="1">
          <mxGeometry x="620" y="1900" width="60" height="20" as="geometry" />
        </mxCell>
        <mxCell id="c03xcksOskagx5v2gtVA-152" value="" style="sketch=0;outlineConnect=0;fontColor=#232F3E;gradientColor=none;fillColor=#ED7100;strokeColor=none;dashed=0;verticalLabelPosition=bottom;verticalAlign=top;align=center;html=1;fontSize=12;fontStyle=0;pointerEvents=1;shape=mxgraph.aws4.container_registry_image;movable=0;resizable=0;rotatable=0;deletable=0;editable=0;locked=1;connectable=0;" parent="1" vertex="1">
          <mxGeometry x="575" y="1680" width="150" height="140" as="geometry" />
        </mxCell>
        <mxCell id="c03xcksOskagx5v2gtVA-153" value="" style="rounded=0;whiteSpace=wrap;html=1;movable=0;resizable=0;rotatable=0;deletable=0;editable=0;locked=1;connectable=0;" parent="1" vertex="1">
          <mxGeometry x="780" y="1670" width="200" height="260" as="geometry" />
        </mxCell>
        <mxCell id="c03xcksOskagx5v2gtVA-154" value="Tigre" style="text;html=1;align=center;verticalAlign=middle;whiteSpace=wrap;rounded=0;fontSize=25;movable=0;resizable=0;rotatable=0;deletable=0;editable=0;locked=1;connectable=0;" parent="1" vertex="1">
          <mxGeometry x="790" y="1825" width="180" height="30" as="geometry" />
        </mxCell>
        <mxCell id="c03xcksOskagx5v2gtVA-155" value="" style="endArrow=none;html=1;rounded=0;curved=1;movable=0;resizable=0;rotatable=0;deletable=0;editable=0;locked=1;connectable=0;" parent="1" edge="1">
          <mxGeometry width="50" height="50" relative="1" as="geometry">
            <mxPoint x="780" y="1860" as="sourcePoint" />
            <mxPoint x="980" y="1860" as="targetPoint" />
          </mxGeometry>
        </mxCell>
        <mxCell id="c03xcksOskagx5v2gtVA-156" value="Av. Libertador&lt;div&gt;3456&lt;/div&gt;" style="text;html=1;align=center;verticalAlign=middle;whiteSpace=wrap;rounded=0;movable=0;resizable=0;rotatable=0;deletable=0;editable=0;locked=1;connectable=0;" parent="1" vertex="1">
          <mxGeometry x="825" y="1865" width="110" height="30" as="geometry" />
        </mxCell>
        <mxCell id="c03xcksOskagx5v2gtVA-157" value="" style="rounded=0;whiteSpace=wrap;html=1;movable=0;resizable=0;rotatable=0;deletable=0;editable=0;locked=1;connectable=0;" parent="1" vertex="1">
          <mxGeometry x="830" y="1900" width="100" height="20" as="geometry" />
        </mxCell>
        <mxCell id="c03xcksOskagx5v2gtVA-273" style="edgeStyle=orthogonalEdgeStyle;curved=1;rounded=0;orthogonalLoop=1;jettySize=auto;html=1;strokeWidth=5;fillColor=#f0a30a;strokeColor=#BD7000;exitX=0.5;exitY=1;exitDx=0;exitDy=0;endArrow=none;endFill=0;movable=0;resizable=0;rotatable=0;deletable=0;editable=0;locked=1;connectable=0;" parent="1" source="c03xcksOskagx5v2gtVA-158" edge="1">
          <mxGeometry relative="1" as="geometry">
            <mxPoint x="890" y="2380" as="targetPoint" />
            <Array as="points">
              <mxPoint x="880" y="1950" />
              <mxPoint x="950" y="1950" />
              <mxPoint x="950" y="2380" />
            </Array>
          </mxGeometry>
        </mxCell>
        <mxCell id="c03xcksOskagx5v2gtVA-158" value="Reservas" style="text;html=1;align=center;verticalAlign=middle;whiteSpace=wrap;rounded=0;movable=0;resizable=0;rotatable=0;deletable=0;editable=0;locked=1;connectable=0;" parent="1" vertex="1">
          <mxGeometry x="850" y="1900" width="60" height="20" as="geometry" />
        </mxCell>
        <mxCell id="c03xcksOskagx5v2gtVA-159" value="" style="sketch=0;outlineConnect=0;fontColor=#232F3E;gradientColor=none;fillColor=#ED7100;strokeColor=none;dashed=0;verticalLabelPosition=bottom;verticalAlign=top;align=center;html=1;fontSize=12;fontStyle=0;pointerEvents=1;shape=mxgraph.aws4.container_registry_image;movable=0;resizable=0;rotatable=0;deletable=0;editable=0;locked=1;connectable=0;" parent="1" vertex="1">
          <mxGeometry x="805" y="1680" width="150" height="140" as="geometry" />
        </mxCell>
        <mxCell id="c03xcksOskagx5v2gtVA-160" value="" style="rounded=0;whiteSpace=wrap;html=1;movable=0;resizable=0;rotatable=0;deletable=0;editable=0;locked=1;connectable=0;" parent="1" vertex="1">
          <mxGeometry x="1010" y="1670" width="200" height="260" as="geometry" />
        </mxCell>
        <mxCell id="c03xcksOskagx5v2gtVA-161" value="La Matanza" style="text;html=1;align=center;verticalAlign=middle;whiteSpace=wrap;rounded=0;fontSize=25;movable=0;resizable=0;rotatable=0;deletable=0;editable=0;locked=1;connectable=0;" parent="1" vertex="1">
          <mxGeometry x="1020" y="1825" width="180" height="30" as="geometry" />
        </mxCell>
        <mxCell id="c03xcksOskagx5v2gtVA-162" value="" style="endArrow=none;html=1;rounded=0;curved=1;movable=0;resizable=0;rotatable=0;deletable=0;editable=0;locked=1;connectable=0;" parent="1" edge="1">
          <mxGeometry width="50" height="50" relative="1" as="geometry">
            <mxPoint x="1010" y="1860" as="sourcePoint" />
            <mxPoint x="1210" y="1860" as="targetPoint" />
          </mxGeometry>
        </mxCell>
        <mxCell id="c03xcksOskagx5v2gtVA-163" value="Av. General Paz&lt;br&gt;2345" style="text;html=1;align=center;verticalAlign=middle;whiteSpace=wrap;rounded=0;movable=0;resizable=0;rotatable=0;deletable=0;editable=0;locked=1;connectable=0;" parent="1" vertex="1">
          <mxGeometry x="1055" y="1865" width="110" height="30" as="geometry" />
        </mxCell>
        <mxCell id="c03xcksOskagx5v2gtVA-164" value="" style="rounded=0;whiteSpace=wrap;html=1;movable=0;resizable=0;rotatable=0;deletable=0;editable=0;locked=1;connectable=0;" parent="1" vertex="1">
          <mxGeometry x="1060" y="1900" width="100" height="20" as="geometry" />
        </mxCell>
        <mxCell id="c03xcksOskagx5v2gtVA-269" style="edgeStyle=orthogonalEdgeStyle;curved=1;rounded=0;orthogonalLoop=1;jettySize=auto;html=1;strokeWidth=5;fillColor=#f0a30a;strokeColor=#BD7000;endArrow=none;endFill=0;movable=0;resizable=0;rotatable=0;deletable=0;editable=0;locked=1;connectable=0;" parent="1" source="c03xcksOskagx5v2gtVA-165" edge="1">
          <mxGeometry relative="1" as="geometry">
            <mxPoint x="900" y="2380" as="targetPoint" />
            <Array as="points">
              <mxPoint x="1110" y="1940" />
              <mxPoint x="1060" y="1940" />
              <mxPoint x="1060" y="2148" />
              <mxPoint x="1061" y="2148" />
              <mxPoint x="1061" y="2380" />
            </Array>
          </mxGeometry>
        </mxCell>
        <mxCell id="c03xcksOskagx5v2gtVA-165" value="Reservas" style="text;html=1;align=center;verticalAlign=middle;whiteSpace=wrap;rounded=0;movable=0;resizable=0;rotatable=0;deletable=0;editable=0;locked=1;connectable=0;" parent="1" vertex="1">
          <mxGeometry x="1080" y="1900" width="60" height="20" as="geometry" />
        </mxCell>
        <mxCell id="c03xcksOskagx5v2gtVA-166" value="" style="sketch=0;outlineConnect=0;fontColor=#232F3E;gradientColor=none;fillColor=#ED7100;strokeColor=none;dashed=0;verticalLabelPosition=bottom;verticalAlign=top;align=center;html=1;fontSize=12;fontStyle=0;pointerEvents=1;shape=mxgraph.aws4.container_registry_image;movable=0;resizable=0;rotatable=0;deletable=0;editable=0;locked=1;connectable=0;" parent="1" vertex="1">
          <mxGeometry x="1035" y="1680" width="150" height="140" as="geometry" />
        </mxCell>
        <mxCell id="c03xcksOskagx5v2gtVA-167" value="" style="rounded=0;whiteSpace=wrap;html=1;movable=0;resizable=0;rotatable=0;deletable=0;editable=0;locked=1;connectable=0;" parent="1" vertex="1">
          <mxGeometry x="1240" y="1670" width="200" height="260" as="geometry" />
        </mxCell>
        <mxCell id="c03xcksOskagx5v2gtVA-168" value="Lobos" style="text;html=1;align=center;verticalAlign=middle;whiteSpace=wrap;rounded=0;fontSize=25;movable=0;resizable=0;rotatable=0;deletable=0;editable=0;locked=1;connectable=0;" parent="1" vertex="1">
          <mxGeometry x="1250" y="1825" width="180" height="30" as="geometry" />
        </mxCell>
        <mxCell id="c03xcksOskagx5v2gtVA-169" value="" style="endArrow=none;html=1;rounded=0;curved=1;movable=0;resizable=0;rotatable=0;deletable=0;editable=0;locked=1;connectable=0;" parent="1" edge="1">
          <mxGeometry width="50" height="50" relative="1" as="geometry">
            <mxPoint x="1240" y="1860" as="sourcePoint" />
            <mxPoint x="1440" y="1860" as="targetPoint" />
          </mxGeometry>
        </mxCell>
        <mxCell id="c03xcksOskagx5v2gtVA-170" value="Ruta 205&lt;br&gt;1789" style="text;html=1;align=center;verticalAlign=middle;whiteSpace=wrap;rounded=0;movable=0;resizable=0;rotatable=0;deletable=0;editable=0;locked=1;connectable=0;" parent="1" vertex="1">
          <mxGeometry x="1285" y="1865" width="110" height="30" as="geometry" />
        </mxCell>
        <mxCell id="c03xcksOskagx5v2gtVA-171" value="" style="rounded=0;whiteSpace=wrap;html=1;movable=0;resizable=0;rotatable=0;deletable=0;editable=0;locked=1;connectable=0;" parent="1" vertex="1">
          <mxGeometry x="1290" y="1900" width="100" height="20" as="geometry" />
        </mxCell>
        <mxCell id="c03xcksOskagx5v2gtVA-272" style="edgeStyle=orthogonalEdgeStyle;curved=1;rounded=0;orthogonalLoop=1;jettySize=auto;html=1;strokeWidth=5;fillColor=#f0a30a;strokeColor=#BD7000;endArrow=none;endFill=0;exitX=0.5;exitY=1;exitDx=0;exitDy=0;movable=0;resizable=0;rotatable=0;deletable=0;editable=0;locked=1;connectable=0;" parent="1" source="c03xcksOskagx5v2gtVA-172" edge="1">
          <mxGeometry relative="1" as="geometry">
            <mxPoint x="880" y="2380" as="targetPoint" />
            <Array as="points">
              <mxPoint x="1360" y="1925" />
              <mxPoint x="1360" y="2380" />
            </Array>
          </mxGeometry>
        </mxCell>
        <mxCell id="c03xcksOskagx5v2gtVA-172" value="Reservas" style="text;html=1;align=center;verticalAlign=middle;whiteSpace=wrap;rounded=0;movable=0;resizable=0;rotatable=0;deletable=0;editable=0;locked=1;connectable=0;" parent="1" vertex="1">
          <mxGeometry x="1310" y="1900" width="60" height="20" as="geometry" />
        </mxCell>
        <mxCell id="c03xcksOskagx5v2gtVA-173" value="" style="sketch=0;outlineConnect=0;fontColor=#232F3E;gradientColor=none;fillColor=#ED7100;strokeColor=none;dashed=0;verticalLabelPosition=bottom;verticalAlign=top;align=center;html=1;fontSize=12;fontStyle=0;pointerEvents=1;shape=mxgraph.aws4.container_registry_image;movable=0;resizable=0;rotatable=0;deletable=0;editable=0;locked=1;connectable=0;" parent="1" vertex="1">
          <mxGeometry x="1265" y="1680" width="150" height="140" as="geometry" />
        </mxCell>
        <mxCell id="c03xcksOskagx5v2gtVA-174" value="" style="rounded=0;whiteSpace=wrap;html=1;movable=0;resizable=0;rotatable=0;deletable=0;editable=0;locked=1;connectable=0;" parent="1" vertex="1">
          <mxGeometry x="320" y="1960" width="200" height="260" as="geometry" />
        </mxCell>
        <mxCell id="c03xcksOskagx5v2gtVA-175" value="Ezeiza" style="text;html=1;align=center;verticalAlign=middle;whiteSpace=wrap;rounded=0;fontSize=25;movable=0;resizable=0;rotatable=0;deletable=0;editable=0;locked=1;connectable=0;" parent="1" vertex="1">
          <mxGeometry x="330" y="2115" width="180" height="30" as="geometry" />
        </mxCell>
        <mxCell id="c03xcksOskagx5v2gtVA-176" value="" style="endArrow=none;html=1;rounded=0;curved=1;movable=0;resizable=0;rotatable=0;deletable=0;editable=0;locked=1;connectable=0;" parent="1" edge="1">
          <mxGeometry width="50" height="50" relative="1" as="geometry">
            <mxPoint x="320" y="2150" as="sourcePoint" />
            <mxPoint x="520" y="2150" as="targetPoint" />
          </mxGeometry>
        </mxCell>
        <mxCell id="c03xcksOskagx5v2gtVA-177" value="Av. Republica de Italia&lt;div&gt;4567&lt;/div&gt;" style="text;html=1;align=center;verticalAlign=middle;whiteSpace=wrap;rounded=0;movable=0;resizable=0;rotatable=0;deletable=0;editable=0;locked=1;connectable=0;" parent="1" vertex="1">
          <mxGeometry x="347.5" y="2155" width="145" height="30" as="geometry" />
        </mxCell>
        <mxCell id="c03xcksOskagx5v2gtVA-178" value="" style="rounded=0;whiteSpace=wrap;html=1;movable=0;resizable=0;rotatable=0;deletable=0;editable=0;locked=1;connectable=0;" parent="1" vertex="1">
          <mxGeometry x="370" y="2190" width="100" height="20" as="geometry" />
        </mxCell>
        <mxCell id="c03xcksOskagx5v2gtVA-276" style="edgeStyle=orthogonalEdgeStyle;curved=1;rounded=0;orthogonalLoop=1;jettySize=auto;html=1;strokeWidth=5;fillColor=#f0a30a;strokeColor=#BD7000;endArrow=none;endFill=0;movable=0;resizable=0;rotatable=0;deletable=0;editable=0;locked=1;connectable=0;" parent="1" source="c03xcksOskagx5v2gtVA-179" edge="1">
          <mxGeometry relative="1" as="geometry">
            <mxPoint x="880" y="2380" as="targetPoint" />
            <Array as="points">
              <mxPoint x="420" y="2380" />
            </Array>
          </mxGeometry>
        </mxCell>
        <mxCell id="c03xcksOskagx5v2gtVA-179" value="Reservas" style="text;html=1;align=center;verticalAlign=middle;whiteSpace=wrap;rounded=0;movable=0;resizable=0;rotatable=0;deletable=0;editable=0;locked=1;connectable=0;" parent="1" vertex="1">
          <mxGeometry x="390" y="2190" width="60" height="20" as="geometry" />
        </mxCell>
        <mxCell id="c03xcksOskagx5v2gtVA-180" value="" style="sketch=0;outlineConnect=0;fontColor=#232F3E;gradientColor=none;fillColor=#ED7100;strokeColor=none;dashed=0;verticalLabelPosition=bottom;verticalAlign=top;align=center;html=1;fontSize=12;fontStyle=0;pointerEvents=1;shape=mxgraph.aws4.container_registry_image;movable=0;resizable=0;rotatable=0;deletable=0;editable=0;locked=1;connectable=0;" parent="1" vertex="1">
          <mxGeometry x="345" y="1970" width="150" height="140" as="geometry" />
        </mxCell>
        <mxCell id="c03xcksOskagx5v2gtVA-181" value="" style="rounded=0;whiteSpace=wrap;html=1;movable=0;resizable=0;rotatable=0;deletable=0;editable=0;locked=1;connectable=0;" parent="1" vertex="1">
          <mxGeometry x="550" y="1960" width="200" height="260" as="geometry" />
        </mxCell>
        <mxCell id="c03xcksOskagx5v2gtVA-182" value="Palermo" style="text;html=1;align=center;verticalAlign=middle;whiteSpace=wrap;rounded=0;fontSize=25;movable=0;resizable=0;rotatable=0;deletable=0;editable=0;locked=1;connectable=0;" parent="1" vertex="1">
          <mxGeometry x="560" y="2115" width="180" height="30" as="geometry" />
        </mxCell>
        <mxCell id="c03xcksOskagx5v2gtVA-183" value="" style="endArrow=none;html=1;rounded=0;curved=1;movable=0;resizable=0;rotatable=0;deletable=0;editable=0;locked=1;connectable=0;" parent="1" edge="1">
          <mxGeometry width="50" height="50" relative="1" as="geometry">
            <mxPoint x="550" y="2150" as="sourcePoint" />
            <mxPoint x="750" y="2150" as="targetPoint" />
          </mxGeometry>
        </mxCell>
        <mxCell id="c03xcksOskagx5v2gtVA-184" value="Av. Dorrego&lt;div&gt;1987&lt;/div&gt;" style="text;html=1;align=center;verticalAlign=middle;whiteSpace=wrap;rounded=0;movable=0;resizable=0;rotatable=0;deletable=0;editable=0;locked=1;connectable=0;" parent="1" vertex="1">
          <mxGeometry x="595" y="2155" width="110" height="30" as="geometry" />
        </mxCell>
        <mxCell id="c03xcksOskagx5v2gtVA-185" value="" style="rounded=0;whiteSpace=wrap;html=1;movable=0;resizable=0;rotatable=0;deletable=0;editable=0;locked=1;connectable=0;" parent="1" vertex="1">
          <mxGeometry x="600" y="2190" width="100" height="20" as="geometry" />
        </mxCell>
        <mxCell id="c03xcksOskagx5v2gtVA-275" style="edgeStyle=orthogonalEdgeStyle;curved=1;rounded=0;orthogonalLoop=1;jettySize=auto;html=1;fillColor=#f0a30a;strokeColor=#BD7000;strokeWidth=5;endArrow=none;endFill=0;exitX=0.5;exitY=1;exitDx=0;exitDy=0;movable=0;resizable=0;rotatable=0;deletable=0;editable=0;locked=1;connectable=0;" parent="1" source="c03xcksOskagx5v2gtVA-186" edge="1">
          <mxGeometry relative="1" as="geometry">
            <mxPoint x="880" y="2380" as="targetPoint" />
            <Array as="points">
              <mxPoint x="650" y="2380" />
            </Array>
          </mxGeometry>
        </mxCell>
        <mxCell id="c03xcksOskagx5v2gtVA-186" value="Reservas" style="text;html=1;align=center;verticalAlign=middle;whiteSpace=wrap;rounded=0;movable=0;resizable=0;rotatable=0;deletable=0;editable=0;locked=1;connectable=0;" parent="1" vertex="1">
          <mxGeometry x="620" y="2190" width="60" height="20" as="geometry" />
        </mxCell>
        <mxCell id="c03xcksOskagx5v2gtVA-187" value="" style="sketch=0;outlineConnect=0;fontColor=#232F3E;gradientColor=none;fillColor=#ED7100;strokeColor=none;dashed=0;verticalLabelPosition=bottom;verticalAlign=top;align=center;html=1;fontSize=12;fontStyle=0;pointerEvents=1;shape=mxgraph.aws4.container_registry_image;movable=0;resizable=0;rotatable=0;deletable=0;editable=0;locked=1;connectable=0;" parent="1" vertex="1">
          <mxGeometry x="575" y="1970" width="150" height="140" as="geometry" />
        </mxCell>
        <mxCell id="c03xcksOskagx5v2gtVA-188" value="" style="rounded=0;whiteSpace=wrap;html=1;movable=0;resizable=0;rotatable=0;deletable=0;editable=0;locked=1;connectable=0;" parent="1" vertex="1">
          <mxGeometry x="780" y="1960" width="200" height="260" as="geometry" />
        </mxCell>
        <mxCell id="c03xcksOskagx5v2gtVA-189" value="Belgrano" style="text;html=1;align=center;verticalAlign=middle;whiteSpace=wrap;rounded=0;fontSize=25;movable=0;resizable=0;rotatable=0;deletable=0;editable=0;locked=1;connectable=0;" parent="1" vertex="1">
          <mxGeometry x="790" y="2115" width="180" height="30" as="geometry" />
        </mxCell>
        <mxCell id="c03xcksOskagx5v2gtVA-190" value="" style="endArrow=none;html=1;rounded=0;curved=1;movable=0;resizable=0;rotatable=0;deletable=0;editable=0;locked=1;connectable=0;" parent="1" edge="1">
          <mxGeometry width="50" height="50" relative="1" as="geometry">
            <mxPoint x="780" y="2150" as="sourcePoint" />
            <mxPoint x="980" y="2150" as="targetPoint" />
          </mxGeometry>
        </mxCell>
        <mxCell id="c03xcksOskagx5v2gtVA-191" value="Av. Cabildo&lt;div&gt;1642&lt;/div&gt;" style="text;html=1;align=center;verticalAlign=middle;whiteSpace=wrap;rounded=0;movable=0;resizable=0;rotatable=0;deletable=0;editable=0;locked=1;connectable=0;" parent="1" vertex="1">
          <mxGeometry x="825" y="2155" width="110" height="30" as="geometry" />
        </mxCell>
        <mxCell id="kIT15DTywkXecoPjwoW1-182" style="edgeStyle=orthogonalEdgeStyle;rounded=0;orthogonalLoop=1;jettySize=auto;html=1;entryX=0.5;entryY=0;entryDx=0;entryDy=0;strokeWidth=5;fillColor=#f0a30a;strokeColor=#BD7000;" edge="1" parent="1" source="c03xcksOskagx5v2gtVA-192" target="kIT15DTywkXecoPjwoW1-167">
          <mxGeometry relative="1" as="geometry" />
        </mxCell>
        <mxCell id="c03xcksOskagx5v2gtVA-192" value="" style="rounded=0;whiteSpace=wrap;html=1;movable=1;resizable=1;rotatable=1;deletable=1;editable=1;locked=0;connectable=1;" parent="1" vertex="1">
          <mxGeometry x="830" y="2190" width="100" height="20" as="geometry" />
        </mxCell>
        <mxCell id="c03xcksOskagx5v2gtVA-193" value="Reservas" style="text;html=1;align=center;verticalAlign=middle;whiteSpace=wrap;rounded=0;movable=0;resizable=0;rotatable=0;deletable=0;editable=0;locked=1;connectable=0;" parent="1" vertex="1">
          <mxGeometry x="850" y="2190" width="60" height="20" as="geometry" />
        </mxCell>
        <mxCell id="c03xcksOskagx5v2gtVA-194" value="" style="sketch=0;outlineConnect=0;fontColor=#232F3E;gradientColor=none;fillColor=#ED7100;strokeColor=none;dashed=0;verticalLabelPosition=bottom;verticalAlign=top;align=center;html=1;fontSize=12;fontStyle=0;pointerEvents=1;shape=mxgraph.aws4.container_registry_image;movable=0;resizable=0;rotatable=0;deletable=0;editable=0;locked=1;connectable=0;" parent="1" vertex="1">
          <mxGeometry x="805" y="1970" width="150" height="140" as="geometry" />
        </mxCell>
        <mxCell id="c03xcksOskagx5v2gtVA-195" value="" style="rounded=0;whiteSpace=wrap;html=1;movable=0;resizable=0;rotatable=0;deletable=0;editable=0;locked=1;connectable=0;" parent="1" vertex="1">
          <mxGeometry x="1010" y="1960" width="200" height="260" as="geometry" />
        </mxCell>
        <mxCell id="c03xcksOskagx5v2gtVA-196" value="San Telmo" style="text;html=1;align=center;verticalAlign=middle;whiteSpace=wrap;rounded=0;fontSize=25;movable=0;resizable=0;rotatable=0;deletable=0;editable=0;locked=1;connectable=0;" parent="1" vertex="1">
          <mxGeometry x="1020" y="2115" width="180" height="30" as="geometry" />
        </mxCell>
        <mxCell id="c03xcksOskagx5v2gtVA-197" value="" style="endArrow=none;html=1;rounded=0;curved=1;movable=0;resizable=0;rotatable=0;deletable=0;editable=0;locked=1;connectable=0;" parent="1" edge="1">
          <mxGeometry width="50" height="50" relative="1" as="geometry">
            <mxPoint x="1010" y="2150" as="sourcePoint" />
            <mxPoint x="1210" y="2150" as="targetPoint" />
          </mxGeometry>
        </mxCell>
        <mxCell id="c03xcksOskagx5v2gtVA-198" value="Av. Paseo ColÃ³n&lt;div&gt;3090&lt;/div&gt;" style="text;html=1;align=center;verticalAlign=middle;whiteSpace=wrap;rounded=0;movable=0;resizable=0;rotatable=0;deletable=0;editable=0;locked=1;connectable=0;" parent="1" vertex="1">
          <mxGeometry x="1055" y="2155" width="110" height="30" as="geometry" />
        </mxCell>
        <mxCell id="c03xcksOskagx5v2gtVA-199" value="" style="rounded=0;whiteSpace=wrap;html=1;movable=0;resizable=0;rotatable=0;deletable=0;editable=0;locked=1;connectable=0;" parent="1" vertex="1">
          <mxGeometry x="1060" y="2190" width="100" height="20" as="geometry" />
        </mxCell>
        <mxCell id="c03xcksOskagx5v2gtVA-270" style="edgeStyle=orthogonalEdgeStyle;curved=1;rounded=0;orthogonalLoop=1;jettySize=auto;html=1;fillColor=#f0a30a;strokeColor=#BD7000;strokeWidth=5;endArrow=none;endFill=0;exitX=0.5;exitY=1;exitDx=0;exitDy=0;movable=0;resizable=0;rotatable=0;deletable=0;editable=0;locked=1;connectable=0;" parent="1" source="c03xcksOskagx5v2gtVA-200" edge="1">
          <mxGeometry relative="1" as="geometry">
            <mxPoint x="880" y="2380" as="targetPoint" />
            <Array as="points">
              <mxPoint x="1110" y="2380" />
            </Array>
          </mxGeometry>
        </mxCell>
        <mxCell id="c03xcksOskagx5v2gtVA-200" value="Reservas" style="text;html=1;align=center;verticalAlign=middle;whiteSpace=wrap;rounded=0;movable=0;resizable=0;rotatable=0;deletable=0;editable=0;locked=1;connectable=0;" parent="1" vertex="1">
          <mxGeometry x="1080" y="2190" width="60" height="20" as="geometry" />
        </mxCell>
        <mxCell id="c03xcksOskagx5v2gtVA-201" value="" style="sketch=0;outlineConnect=0;fontColor=#232F3E;gradientColor=none;fillColor=#ED7100;strokeColor=none;dashed=0;verticalLabelPosition=bottom;verticalAlign=top;align=center;html=1;fontSize=12;fontStyle=0;pointerEvents=1;shape=mxgraph.aws4.container_registry_image;movable=0;resizable=0;rotatable=0;deletable=0;editable=0;locked=1;connectable=0;" parent="1" vertex="1">
          <mxGeometry x="1035" y="1970" width="150" height="140" as="geometry" />
        </mxCell>
        <mxCell id="c03xcksOskagx5v2gtVA-202" value="" style="rounded=0;whiteSpace=wrap;html=1;movable=0;resizable=0;rotatable=0;deletable=0;editable=0;locked=1;connectable=0;" parent="1" vertex="1">
          <mxGeometry x="1240" y="1960" width="200" height="260" as="geometry" />
        </mxCell>
        <mxCell id="c03xcksOskagx5v2gtVA-203" value="San Miguel" style="text;html=1;align=center;verticalAlign=middle;whiteSpace=wrap;rounded=0;fontSize=25;movable=0;resizable=0;rotatable=0;deletable=0;editable=0;locked=1;connectable=0;" parent="1" vertex="1">
          <mxGeometry x="1250" y="2115" width="180" height="30" as="geometry" />
        </mxCell>
        <mxCell id="c03xcksOskagx5v2gtVA-204" value="" style="endArrow=none;html=1;rounded=0;curved=1;movable=0;resizable=0;rotatable=0;deletable=0;editable=0;locked=1;connectable=0;" parent="1" edge="1">
          <mxGeometry width="50" height="50" relative="1" as="geometry">
            <mxPoint x="1240" y="2150" as="sourcePoint" />
            <mxPoint x="1440" y="2150" as="targetPoint" />
          </mxGeometry>
        </mxCell>
        <mxCell id="c03xcksOskagx5v2gtVA-205" value="Av. MurguÃ­a&lt;div&gt;4211&lt;/div&gt;" style="text;html=1;align=center;verticalAlign=middle;whiteSpace=wrap;rounded=0;movable=0;resizable=0;rotatable=0;deletable=0;editable=0;locked=1;connectable=0;" parent="1" vertex="1">
          <mxGeometry x="1285" y="2155" width="110" height="30" as="geometry" />
        </mxCell>
        <mxCell id="c03xcksOskagx5v2gtVA-206" value="" style="rounded=0;whiteSpace=wrap;html=1;movable=0;resizable=0;rotatable=0;deletable=0;editable=0;locked=1;connectable=0;" parent="1" vertex="1">
          <mxGeometry x="1290" y="2190" width="100" height="20" as="geometry" />
        </mxCell>
        <mxCell id="c03xcksOskagx5v2gtVA-271" style="edgeStyle=orthogonalEdgeStyle;curved=1;rounded=0;orthogonalLoop=1;jettySize=auto;html=1;strokeWidth=5;fillColor=#f0a30a;strokeColor=#BD7000;endArrow=none;endFill=0;exitX=0.5;exitY=1;exitDx=0;exitDy=0;movable=0;resizable=0;rotatable=0;deletable=0;editable=0;locked=1;connectable=0;" parent="1" source="c03xcksOskagx5v2gtVA-207" edge="1">
          <mxGeometry relative="1" as="geometry">
            <mxPoint x="880" y="2380" as="targetPoint" />
            <Array as="points">
              <mxPoint x="1340" y="2380" />
            </Array>
          </mxGeometry>
        </mxCell>
        <mxCell id="c03xcksOskagx5v2gtVA-207" value="Reservas" style="text;html=1;align=center;verticalAlign=middle;whiteSpace=wrap;rounded=0;movable=0;resizable=0;rotatable=0;deletable=0;editable=0;locked=1;connectable=0;" parent="1" vertex="1">
          <mxGeometry x="1310" y="2190" width="60" height="20" as="geometry" />
        </mxCell>
        <mxCell id="c03xcksOskagx5v2gtVA-208" value="" style="sketch=0;outlineConnect=0;fontColor=#232F3E;gradientColor=none;fillColor=#ED7100;strokeColor=none;dashed=0;verticalLabelPosition=bottom;verticalAlign=top;align=center;html=1;fontSize=12;fontStyle=0;pointerEvents=1;shape=mxgraph.aws4.container_registry_image;movable=0;resizable=0;rotatable=0;deletable=0;editable=0;locked=1;connectable=0;" parent="1" vertex="1">
          <mxGeometry x="1265" y="1970" width="150" height="140" as="geometry" />
        </mxCell>
        <mxCell id="c03xcksOskagx5v2gtVA-209" value="" style="rounded=0;whiteSpace=wrap;html=1;fillColor=#020203;movable=0;resizable=0;rotatable=0;deletable=0;editable=0;locked=1;connectable=0;" parent="1" vertex="1">
          <mxGeometry x="1510" y="1560" width="10" height="680" as="geometry" />
        </mxCell>
        <mxCell id="c03xcksOskagx5v2gtVA-210" value="" style="rounded=0;whiteSpace=wrap;html=1;movable=0;resizable=0;rotatable=0;deletable=0;editable=0;locked=1;connectable=0;" parent="1" vertex="1">
          <mxGeometry x="1510" y="1560" width="10" height="650" as="geometry" />
        </mxCell>
        <mxCell id="c03xcksOskagx5v2gtVA-211" value="&lt;font style=&quot;font-size: 8px;&quot;&gt;\/&lt;/font&gt;" style="rounded=0;whiteSpace=wrap;html=1;movable=0;resizable=0;rotatable=0;deletable=0;editable=0;locked=1;connectable=0;" parent="1" vertex="1">
          <mxGeometry x="1510" y="2240" width="10" height="10" as="geometry" />
        </mxCell>
        <mxCell id="c03xcksOskagx5v2gtVA-212" value="&lt;font style=&quot;font-size: 8px;&quot;&gt;/\&lt;/font&gt;" style="rounded=0;whiteSpace=wrap;html=1;movable=0;resizable=0;rotatable=0;deletable=0;editable=0;locked=1;connectable=0;" parent="1" vertex="1">
          <mxGeometry x="1510" y="1550" width="10" height="10" as="geometry" />
        </mxCell>
        <mxCell id="c03xcksOskagx5v2gtVA-49" value="" style="rounded=0;whiteSpace=wrap;html=1;fillColor=#d80073;fontColor=#ffffff;strokeColor=#A50040;movable=0;resizable=0;rotatable=0;deletable=0;editable=0;locked=1;connectable=0;" parent="1" vertex="1">
          <mxGeometry x="580" y="945" width="120" height="60" as="geometry" />
        </mxCell>
        <mxCell id="c03xcksOskagx5v2gtVA-50" value="INCORRECTOS" style="text;html=1;align=center;verticalAlign=middle;whiteSpace=wrap;rounded=0;movable=0;resizable=0;rotatable=0;deletable=0;editable=0;locked=1;connectable=0;" parent="1" vertex="1">
          <mxGeometry x="590" y="955" width="100" height="40" as="geometry" />
        </mxCell>
        <mxCell id="joK4nO-dzWOsHn-svf8Y-1" value="" style="rounded=0;whiteSpace=wrap;html=1;movable=0;resizable=0;rotatable=0;deletable=0;editable=0;locked=1;connectable=0;" parent="1" vertex="1">
          <mxGeometry x="240" y="3280" width="1280" height="720" as="geometry" />
        </mxCell>
        <mxCell id="joK4nO-dzWOsHn-svf8Y-2" value="" style="rounded=0;whiteSpace=wrap;html=1;movable=0;resizable=0;rotatable=0;deletable=0;editable=0;locked=1;connectable=0;" parent="1" vertex="1">
          <mxGeometry x="250" y="3285" width="10" height="10" as="geometry" />
        </mxCell>
        <mxCell id="joK4nO-dzWOsHn-svf8Y-3" value="Software" style="text;html=1;strokeColor=none;fillColor=none;align=center;verticalAlign=middle;whiteSpace=wrap;rounded=0;fontSize=11;movable=0;resizable=0;rotatable=0;deletable=0;editable=0;locked=1;connectable=0;" parent="1" vertex="1">
          <mxGeometry x="260" y="3282.5" width="50" height="15" as="geometry" />
        </mxCell>
        <mxCell id="joK4nO-dzWOsHn-svf8Y-4" value="" style="group;movable=0;resizable=0;rotatable=0;deletable=0;editable=0;locked=1;connectable=0;" parent="1" vertex="1" connectable="0">
          <mxGeometry x="1400" y="3280" width="40" height="20" as="geometry" />
        </mxCell>
        <mxCell id="joK4nO-dzWOsHn-svf8Y-5" value="" style="rounded=0;whiteSpace=wrap;html=1;movable=0;resizable=0;rotatable=0;deletable=0;editable=0;locked=1;connectable=0;" parent="joK4nO-dzWOsHn-svf8Y-4" vertex="1">
          <mxGeometry width="40" height="20" as="geometry" />
        </mxCell>
        <mxCell id="joK4nO-dzWOsHn-svf8Y-6" value="" style="endArrow=none;html=1;rounded=0;movable=0;resizable=0;rotatable=0;deletable=0;editable=0;locked=1;connectable=0;" parent="joK4nO-dzWOsHn-svf8Y-4" edge="1">
          <mxGeometry width="50" height="50" relative="1" as="geometry">
            <mxPoint x="15" y="9.879999999999995" as="sourcePoint" />
            <mxPoint x="25" y="9.879999999999995" as="targetPoint" />
          </mxGeometry>
        </mxCell>
        <mxCell id="joK4nO-dzWOsHn-svf8Y-7" value="" style="group;movable=0;resizable=0;rotatable=0;deletable=0;editable=0;locked=1;connectable=0;" parent="1" vertex="1" connectable="0">
          <mxGeometry x="1440" y="3280" width="40" height="20" as="geometry" />
        </mxCell>
        <mxCell id="joK4nO-dzWOsHn-svf8Y-8" value="" style="rounded=0;whiteSpace=wrap;html=1;movable=0;resizable=0;rotatable=0;deletable=0;editable=0;locked=1;connectable=0;" parent="joK4nO-dzWOsHn-svf8Y-7" vertex="1">
          <mxGeometry width="40" height="20" as="geometry" />
        </mxCell>
        <mxCell id="joK4nO-dzWOsHn-svf8Y-9" value="" style="rounded=0;whiteSpace=wrap;html=1;movable=0;resizable=0;rotatable=0;deletable=0;editable=0;locked=1;connectable=0;" parent="joK4nO-dzWOsHn-svf8Y-7" vertex="1">
          <mxGeometry x="15" y="5" width="10" height="10" as="geometry" />
        </mxCell>
        <mxCell id="joK4nO-dzWOsHn-svf8Y-10" value="" style="group;movable=0;resizable=0;rotatable=0;deletable=0;editable=0;locked=1;connectable=0;" parent="1" vertex="1" connectable="0">
          <mxGeometry x="1480" y="3280" width="40" height="20" as="geometry" />
        </mxCell>
        <mxCell id="joK4nO-dzWOsHn-svf8Y-11" value="" style="rounded=0;whiteSpace=wrap;html=1;movable=0;resizable=0;rotatable=0;deletable=0;editable=0;locked=1;connectable=0;" parent="joK4nO-dzWOsHn-svf8Y-10" vertex="1">
          <mxGeometry width="40" height="20" as="geometry" />
        </mxCell>
        <mxCell id="joK4nO-dzWOsHn-svf8Y-12" value="" style="group;movable=0;resizable=0;rotatable=0;deletable=0;editable=0;locked=1;connectable=0;" parent="joK4nO-dzWOsHn-svf8Y-10" vertex="1" connectable="0">
          <mxGeometry x="15" y="5" width="10" height="10" as="geometry" />
        </mxCell>
        <mxCell id="joK4nO-dzWOsHn-svf8Y-13" value="" style="endArrow=none;html=1;rounded=0;movable=0;resizable=0;rotatable=0;deletable=0;editable=0;locked=1;connectable=0;" parent="joK4nO-dzWOsHn-svf8Y-12" edge="1">
          <mxGeometry width="50" height="50" relative="1" as="geometry">
            <mxPoint y="10" as="sourcePoint" />
            <mxPoint x="10" as="targetPoint" />
          </mxGeometry>
        </mxCell>
        <mxCell id="joK4nO-dzWOsHn-svf8Y-14" value="" style="endArrow=none;html=1;rounded=0;movable=0;resizable=0;rotatable=0;deletable=0;editable=0;locked=1;connectable=0;" parent="joK4nO-dzWOsHn-svf8Y-12" edge="1">
          <mxGeometry width="50" height="50" relative="1" as="geometry">
            <mxPoint x="10" y="10" as="sourcePoint" />
            <mxPoint as="targetPoint" />
          </mxGeometry>
        </mxCell>
        <mxCell id="joK4nO-dzWOsHn-svf8Y-15" value="" style="endArrow=none;html=1;rounded=0;movable=0;resizable=0;rotatable=0;deletable=0;editable=0;locked=1;connectable=0;" parent="1" edge="1">
          <mxGeometry width="50" height="50" relative="1" as="geometry">
            <mxPoint x="240" y="3300" as="sourcePoint" />
            <mxPoint x="1520" y="3300" as="targetPoint" />
          </mxGeometry>
        </mxCell>
        <mxCell id="joK4nO-dzWOsHn-svf8Y-18" value="" style="edgeStyle=orthogonalEdgeStyle;rounded=0;orthogonalLoop=1;jettySize=auto;html=1;fillColor=#0050ef;strokeColor=#001DBC;strokeWidth=5;movable=0;resizable=0;rotatable=0;deletable=0;editable=0;locked=1;connectable=0;" parent="1" source="joK4nO-dzWOsHn-svf8Y-16" target="joK4nO-dzWOsHn-svf8Y-17" edge="1">
          <mxGeometry relative="1" as="geometry" />
        </mxCell>
        <mxCell id="joK4nO-dzWOsHn-svf8Y-23" value="" style="edgeStyle=orthogonalEdgeStyle;rounded=0;orthogonalLoop=1;jettySize=auto;html=1;strokeWidth=5;fillColor=#0050ef;strokeColor=#001DBC;movable=0;resizable=0;rotatable=0;deletable=0;editable=0;locked=1;connectable=0;" parent="1" source="joK4nO-dzWOsHn-svf8Y-16" target="joK4nO-dzWOsHn-svf8Y-22" edge="1">
          <mxGeometry relative="1" as="geometry" />
        </mxCell>
        <mxCell id="joK4nO-dzWOsHn-svf8Y-16" value="Es Admin" style="rhombus;whiteSpace=wrap;html=1;fillColor=#0050ef;fontColor=#ffffff;strokeColor=#001DBC;movable=0;resizable=0;rotatable=0;deletable=0;editable=0;locked=1;connectable=0;" parent="1" vertex="1">
          <mxGeometry x="840" y="1250" width="80" height="80" as="geometry" />
        </mxCell>
        <mxCell id="joK4nO-dzWOsHn-svf8Y-21" style="edgeStyle=orthogonalEdgeStyle;rounded=0;orthogonalLoop=1;jettySize=auto;html=1;entryX=0.5;entryY=0;entryDx=0;entryDy=0;strokeWidth=5;fillColor=#0050ef;strokeColor=#001DBC;movable=0;resizable=0;rotatable=0;deletable=0;editable=0;locked=1;connectable=0;" parent="1" source="joK4nO-dzWOsHn-svf8Y-17" target="c03xcksOskagx5v2gtVA-71" edge="1">
          <mxGeometry relative="1" as="geometry">
            <mxPoint x="880" y="1580" as="targetPoint" />
          </mxGeometry>
        </mxCell>
        <mxCell id="joK4nO-dzWOsHn-svf8Y-17" value="NO" style="whiteSpace=wrap;html=1;fillColor=#0050ef;strokeColor=#001DBC;fontColor=#ffffff;movable=0;resizable=0;rotatable=0;deletable=0;editable=0;locked=1;connectable=0;" parent="1" vertex="1">
          <mxGeometry x="820" y="1380" width="120" height="60" as="geometry" />
        </mxCell>
        <mxCell id="joK4nO-dzWOsHn-svf8Y-20" style="edgeStyle=orthogonalEdgeStyle;rounded=0;orthogonalLoop=1;jettySize=auto;html=1;strokeWidth=5;fillColor=#60a917;strokeColor=#2D7600;movable=0;resizable=0;rotatable=0;deletable=0;editable=0;locked=1;connectable=0;" parent="1" source="c03xcksOskagx5v2gtVA-43" target="joK4nO-dzWOsHn-svf8Y-16" edge="1">
          <mxGeometry relative="1" as="geometry" />
        </mxCell>
        <mxCell id="joK4nO-dzWOsHn-svf8Y-39" style="edgeStyle=orthogonalEdgeStyle;rounded=0;orthogonalLoop=1;jettySize=auto;html=1;entryX=0;entryY=0.5;entryDx=0;entryDy=0;strokeWidth=5;fillColor=#0050ef;strokeColor=#001DBC;movable=0;resizable=0;rotatable=0;deletable=0;editable=0;locked=1;connectable=0;" parent="1" source="joK4nO-dzWOsHn-svf8Y-22" target="joK4nO-dzWOsHn-svf8Y-24" edge="1">
          <mxGeometry relative="1" as="geometry" />
        </mxCell>
        <mxCell id="joK4nO-dzWOsHn-svf8Y-22" value="SI" style="whiteSpace=wrap;html=1;fillColor=#0050ef;strokeColor=#001DBC;fontColor=#ffffff;movable=0;resizable=0;rotatable=0;deletable=0;editable=0;locked=1;connectable=0;" parent="1" vertex="1">
          <mxGeometry x="1000" y="1260" width="120" height="60" as="geometry" />
        </mxCell>
        <mxCell id="joK4nO-dzWOsHn-svf8Y-24" value="" style="rounded=0;whiteSpace=wrap;html=1;movable=0;resizable=0;rotatable=0;deletable=0;editable=0;locked=1;connectable=0;" parent="1" vertex="1">
          <mxGeometry x="1960" y="930" width="1280" height="720" as="geometry" />
        </mxCell>
        <mxCell id="joK4nO-dzWOsHn-svf8Y-25" value="" style="rounded=0;whiteSpace=wrap;html=1;movable=0;resizable=0;rotatable=0;deletable=0;editable=0;locked=1;connectable=0;" parent="1" vertex="1">
          <mxGeometry x="1970" y="935" width="10" height="10" as="geometry" />
        </mxCell>
        <mxCell id="joK4nO-dzWOsHn-svf8Y-26" value="Balines Mojados" style="text;html=1;strokeColor=none;fillColor=none;align=center;verticalAlign=middle;whiteSpace=wrap;rounded=0;fontSize=11;movable=0;resizable=0;rotatable=0;deletable=0;editable=0;locked=1;connectable=0;" parent="1" vertex="1">
          <mxGeometry x="1980" y="932.5" width="90" height="15" as="geometry" />
        </mxCell>
        <mxCell id="joK4nO-dzWOsHn-svf8Y-27" value="" style="group;movable=0;resizable=0;rotatable=0;deletable=0;editable=0;locked=1;connectable=0;" parent="1" vertex="1" connectable="0">
          <mxGeometry x="3120" y="930" width="40" height="20" as="geometry" />
        </mxCell>
        <mxCell id="joK4nO-dzWOsHn-svf8Y-28" value="" style="rounded=0;whiteSpace=wrap;html=1;movable=0;resizable=0;rotatable=0;deletable=0;editable=0;locked=1;connectable=0;" parent="joK4nO-dzWOsHn-svf8Y-27" vertex="1">
          <mxGeometry width="40" height="20" as="geometry" />
        </mxCell>
        <mxCell id="joK4nO-dzWOsHn-svf8Y-29" value="" style="endArrow=none;html=1;rounded=0;movable=0;resizable=0;rotatable=0;deletable=0;editable=0;locked=1;connectable=0;" parent="joK4nO-dzWOsHn-svf8Y-27" edge="1">
          <mxGeometry width="50" height="50" relative="1" as="geometry">
            <mxPoint x="15" y="9.879999999999995" as="sourcePoint" />
            <mxPoint x="25" y="9.879999999999995" as="targetPoint" />
          </mxGeometry>
        </mxCell>
        <mxCell id="joK4nO-dzWOsHn-svf8Y-30" value="" style="group;movable=0;resizable=0;rotatable=0;deletable=0;editable=0;locked=1;connectable=0;" parent="1" vertex="1" connectable="0">
          <mxGeometry x="3160" y="930" width="40" height="20" as="geometry" />
        </mxCell>
        <mxCell id="joK4nO-dzWOsHn-svf8Y-31" value="" style="rounded=0;whiteSpace=wrap;html=1;movable=0;resizable=0;rotatable=0;deletable=0;editable=0;locked=1;connectable=0;" parent="joK4nO-dzWOsHn-svf8Y-30" vertex="1">
          <mxGeometry width="40" height="20" as="geometry" />
        </mxCell>
        <mxCell id="joK4nO-dzWOsHn-svf8Y-32" value="" style="rounded=0;whiteSpace=wrap;html=1;movable=0;resizable=0;rotatable=0;deletable=0;editable=0;locked=1;connectable=0;" parent="joK4nO-dzWOsHn-svf8Y-30" vertex="1">
          <mxGeometry x="15" y="5" width="10" height="10" as="geometry" />
        </mxCell>
        <mxCell id="joK4nO-dzWOsHn-svf8Y-33" value="" style="group;movable=0;resizable=0;rotatable=0;deletable=0;editable=0;locked=1;connectable=0;" parent="1" vertex="1" connectable="0">
          <mxGeometry x="3200" y="930" width="40" height="20" as="geometry" />
        </mxCell>
        <mxCell id="joK4nO-dzWOsHn-svf8Y-34" value="" style="rounded=0;whiteSpace=wrap;html=1;movable=0;resizable=0;rotatable=0;deletable=0;editable=0;locked=1;connectable=0;" parent="joK4nO-dzWOsHn-svf8Y-33" vertex="1">
          <mxGeometry width="40" height="20" as="geometry" />
        </mxCell>
        <mxCell id="joK4nO-dzWOsHn-svf8Y-35" value="" style="group;movable=0;resizable=0;rotatable=0;deletable=0;editable=0;locked=1;connectable=0;" parent="joK4nO-dzWOsHn-svf8Y-33" vertex="1" connectable="0">
          <mxGeometry x="15" y="5" width="10" height="10" as="geometry" />
        </mxCell>
        <mxCell id="joK4nO-dzWOsHn-svf8Y-36" value="" style="endArrow=none;html=1;rounded=0;movable=0;resizable=0;rotatable=0;deletable=0;editable=0;locked=1;connectable=0;" parent="joK4nO-dzWOsHn-svf8Y-35" edge="1">
          <mxGeometry width="50" height="50" relative="1" as="geometry">
            <mxPoint y="10" as="sourcePoint" />
            <mxPoint x="10" as="targetPoint" />
          </mxGeometry>
        </mxCell>
        <mxCell id="joK4nO-dzWOsHn-svf8Y-37" value="" style="endArrow=none;html=1;rounded=0;movable=0;resizable=0;rotatable=0;deletable=0;editable=0;locked=1;connectable=0;" parent="joK4nO-dzWOsHn-svf8Y-35" edge="1">
          <mxGeometry width="50" height="50" relative="1" as="geometry">
            <mxPoint x="10" y="10" as="sourcePoint" />
            <mxPoint as="targetPoint" />
          </mxGeometry>
        </mxCell>
        <mxCell id="joK4nO-dzWOsHn-svf8Y-38" value="" style="endArrow=none;html=1;rounded=0;movable=0;resizable=0;rotatable=0;deletable=0;editable=0;locked=1;connectable=0;" parent="1" edge="1">
          <mxGeometry width="50" height="50" relative="1" as="geometry">
            <mxPoint x="1960" y="950" as="sourcePoint" />
            <mxPoint x="3240" y="950" as="targetPoint" />
          </mxGeometry>
        </mxCell>
        <mxCell id="kIT15DTywkXecoPjwoW1-6" style="edgeStyle=orthogonalEdgeStyle;rounded=0;orthogonalLoop=1;jettySize=auto;html=1;entryX=0.5;entryY=0;entryDx=0;entryDy=0;" edge="1" parent="1" source="d390-w_tMJrC8LeGLLj7-1" target="kIT15DTywkXecoPjwoW1-1">
          <mxGeometry relative="1" as="geometry">
            <Array as="points">
              <mxPoint x="2200" y="630" />
              <mxPoint x="2200" y="630" />
            </Array>
          </mxGeometry>
        </mxCell>
        <mxCell id="kIT15DTywkXecoPjwoW1-7" style="edgeStyle=orthogonalEdgeStyle;rounded=0;orthogonalLoop=1;jettySize=auto;html=1;entryX=0.5;entryY=0;entryDx=0;entryDy=0;" edge="1" parent="1" source="d390-w_tMJrC8LeGLLj7-1" target="d390-w_tMJrC8LeGLLj7-4">
          <mxGeometry relative="1" as="geometry">
            <Array as="points">
              <mxPoint x="2320" y="630" />
              <mxPoint x="2320" y="630" />
            </Array>
          </mxGeometry>
        </mxCell>
        <mxCell id="d390-w_tMJrC8LeGLLj7-1" value="Administracion" style="rounded=0;whiteSpace=wrap;html=1;" parent="1" vertex="1">
          <mxGeometry x="2200" y="560" width="120" height="60" as="geometry" />
        </mxCell>
        <mxCell id="kIT15DTywkXecoPjwoW1-8" style="edgeStyle=orthogonalEdgeStyle;rounded=0;orthogonalLoop=1;jettySize=auto;html=1;entryX=0.5;entryY=0;entryDx=0;entryDy=0;" edge="1" parent="1" source="d390-w_tMJrC8LeGLLj7-2" target="kIT15DTywkXecoPjwoW1-2">
          <mxGeometry relative="1" as="geometry">
            <Array as="points">
              <mxPoint x="2480" y="630" />
              <mxPoint x="2480" y="630" />
            </Array>
          </mxGeometry>
        </mxCell>
        <mxCell id="kIT15DTywkXecoPjwoW1-9" style="edgeStyle=orthogonalEdgeStyle;rounded=0;orthogonalLoop=1;jettySize=auto;html=1;entryX=0.5;entryY=0;entryDx=0;entryDy=0;" edge="1" parent="1" source="d390-w_tMJrC8LeGLLj7-2" target="kIT15DTywkXecoPjwoW1-3">
          <mxGeometry relative="1" as="geometry">
            <Array as="points">
              <mxPoint x="2600" y="630" />
              <mxPoint x="2600" y="630" />
            </Array>
          </mxGeometry>
        </mxCell>
        <mxCell id="d390-w_tMJrC8LeGLLj7-2" value="Gestion" style="rounded=0;whiteSpace=wrap;html=1;" parent="1" vertex="1">
          <mxGeometry x="2480" y="560" width="120" height="60" as="geometry" />
        </mxCell>
        <mxCell id="d390-w_tMJrC8LeGLLj7-4" value="Sucursales" style="rounded=0;whiteSpace=wrap;html=1;" parent="1" vertex="1">
          <mxGeometry x="2260" y="640" width="120" height="60" as="geometry" />
        </mxCell>
        <mxCell id="kIT15DTywkXecoPjwoW1-1" value="Personal" style="rounded=0;whiteSpace=wrap;html=1;" vertex="1" parent="1">
          <mxGeometry x="2140" y="640" width="120" height="60" as="geometry" />
        </mxCell>
        <mxCell id="kIT15DTywkXecoPjwoW1-2" value="Facturas" style="rounded=0;whiteSpace=wrap;html=1;" vertex="1" parent="1">
          <mxGeometry x="2420" y="640" width="120" height="60" as="geometry" />
        </mxCell>
        <mxCell id="kIT15DTywkXecoPjwoW1-3" value="Reservas" style="rounded=0;whiteSpace=wrap;html=1;" vertex="1" parent="1">
          <mxGeometry x="2540" y="640" width="120" height="60" as="geometry" />
        </mxCell>
        <mxCell id="kIT15DTywkXecoPjwoW1-4" value="AÃADIR,&amp;nbsp;&lt;div&gt;ELIMINAR Y/O&lt;div&gt;MODIFICAR&lt;/div&gt;&lt;/div&gt;" style="rounded=0;whiteSpace=wrap;html=1;" vertex="1" parent="1">
          <mxGeometry x="2260" y="700" width="120" height="60" as="geometry" />
        </mxCell>
        <mxCell id="kIT15DTywkXecoPjwoW1-10" value="VER Y/O DESCARGAR FACTURAS" style="rounded=0;whiteSpace=wrap;html=1;" vertex="1" parent="1">
          <mxGeometry x="2420" y="700" width="120" height="60" as="geometry" />
        </mxCell>
        <mxCell id="kIT15DTywkXecoPjwoW1-12" value="AÃADIR,&amp;nbsp;&lt;div&gt;ELIMINAR Y/O&lt;div&gt;MODIFICAR&lt;/div&gt;&lt;/div&gt;" style="rounded=0;whiteSpace=wrap;html=1;" vertex="1" parent="1">
          <mxGeometry x="2540" y="700" width="120" height="60" as="geometry" />
        </mxCell>
        <mxCell id="kIT15DTywkXecoPjwoW1-13" value="AÃADIR&lt;span style=&quot;background-color: initial;&quot;&gt;,&lt;/span&gt;&lt;div&gt;&lt;span style=&quot;background-color: initial;&quot;&gt;ELIMINAR Y/O MODIFICAR&lt;/span&gt;&lt;/div&gt;&lt;div&gt;&lt;span style=&quot;background-color: initial;&quot;&gt;&lt;br&gt;&lt;/span&gt;&lt;/div&gt;&lt;div&gt;GESTION TIEMPO&lt;/div&gt;" style="rounded=0;whiteSpace=wrap;html=1;" vertex="1" parent="1">
          <mxGeometry x="2140" y="700" width="120" height="120" as="geometry" />
        </mxCell>
        <mxCell id="kIT15DTywkXecoPjwoW1-166" value="" style="group" vertex="1" connectable="0" parent="1">
          <mxGeometry x="-1510" y="2200" width="1280" height="720" as="geometry" />
        </mxCell>
        <mxCell id="kIT15DTywkXecoPjwoW1-14" value="" style="rounded=0;whiteSpace=wrap;html=1;" vertex="1" parent="kIT15DTywkXecoPjwoW1-166">
          <mxGeometry width="1280" height="720" as="geometry" />
        </mxCell>
        <mxCell id="kIT15DTywkXecoPjwoW1-15" value="" style="rounded=0;whiteSpace=wrap;html=1;" vertex="1" parent="kIT15DTywkXecoPjwoW1-166">
          <mxGeometry x="10" y="5" width="10" height="10" as="geometry" />
        </mxCell>
        <mxCell id="kIT15DTywkXecoPjwoW1-16" value="Balines Mojados" style="text;html=1;strokeColor=none;fillColor=none;align=center;verticalAlign=middle;whiteSpace=wrap;rounded=0;fontSize=11;" vertex="1" parent="kIT15DTywkXecoPjwoW1-166">
          <mxGeometry x="20" y="2.5" width="90" height="15" as="geometry" />
        </mxCell>
        <mxCell id="kIT15DTywkXecoPjwoW1-17" value="" style="rounded=0;whiteSpace=wrap;html=1;" vertex="1" parent="kIT15DTywkXecoPjwoW1-166">
          <mxGeometry x="240" y="40" width="1020" height="660" as="geometry" />
        </mxCell>
        <mxCell id="kIT15DTywkXecoPjwoW1-18" value="" style="endArrow=none;html=1;rounded=0;" edge="1" parent="kIT15DTywkXecoPjwoW1-166">
          <mxGeometry width="50" height="50" relative="1" as="geometry">
            <mxPoint x="160" y="720" as="sourcePoint" />
            <mxPoint x="160" y="20" as="targetPoint" />
          </mxGeometry>
        </mxCell>
        <mxCell id="kIT15DTywkXecoPjwoW1-19" value="" style="endArrow=none;html=1;rounded=0;dashed=1;dashPattern=1 4;" edge="1" parent="kIT15DTywkXecoPjwoW1-166">
          <mxGeometry width="50" height="50" relative="1" as="geometry">
            <mxPoint x="300" y="700" as="sourcePoint" />
            <mxPoint x="300" y="40" as="targetPoint" />
          </mxGeometry>
        </mxCell>
        <mxCell id="kIT15DTywkXecoPjwoW1-20" value="" style="endArrow=none;html=1;rounded=0;dashed=1;dashPattern=1 4;" edge="1" parent="kIT15DTywkXecoPjwoW1-166">
          <mxGeometry width="50" height="50" relative="1" as="geometry">
            <mxPoint x="360" y="700" as="sourcePoint" />
            <mxPoint x="360" y="40" as="targetPoint" />
          </mxGeometry>
        </mxCell>
        <mxCell id="kIT15DTywkXecoPjwoW1-21" value="" style="endArrow=none;html=1;rounded=0;" edge="1" parent="kIT15DTywkXecoPjwoW1-166">
          <mxGeometry width="50" height="50" relative="1" as="geometry">
            <mxPoint x="1260" y="70.11000000000013" as="sourcePoint" />
            <mxPoint x="240" y="70" as="targetPoint" />
          </mxGeometry>
        </mxCell>
        <mxCell id="kIT15DTywkXecoPjwoW1-22" value="" style="rounded=0;whiteSpace=wrap;html=1;" vertex="1" parent="kIT15DTywkXecoPjwoW1-166">
          <mxGeometry x="10" y="30" width="140" height="60" as="geometry" />
        </mxCell>
        <mxCell id="kIT15DTywkXecoPjwoW1-23" value="NUEVA&amp;nbsp; RESERVA" style="text;html=1;align=center;verticalAlign=middle;whiteSpace=wrap;rounded=0;fontSize=20;" vertex="1" parent="kIT15DTywkXecoPjwoW1-166">
          <mxGeometry x="10" y="30" width="140" height="60" as="geometry" />
        </mxCell>
        <mxCell id="kIT15DTywkXecoPjwoW1-24" value="Lunes" style="rounded=0;whiteSpace=wrap;html=1;" vertex="1" parent="kIT15DTywkXecoPjwoW1-166">
          <mxGeometry x="170" y="70" width="70" height="30" as="geometry" />
        </mxCell>
        <mxCell id="kIT15DTywkXecoPjwoW1-26" value="" style="rounded=0;whiteSpace=wrap;html=1;" vertex="1" parent="kIT15DTywkXecoPjwoW1-166">
          <mxGeometry x="10" y="100" width="140" height="60" as="geometry" />
        </mxCell>
        <mxCell id="kIT15DTywkXecoPjwoW1-27" value="EDITAR RESERVA" style="text;html=1;align=center;verticalAlign=middle;whiteSpace=wrap;rounded=0;fontSize=20;" vertex="1" parent="kIT15DTywkXecoPjwoW1-166">
          <mxGeometry x="10" y="100" width="140" height="60" as="geometry" />
        </mxCell>
        <mxCell id="kIT15DTywkXecoPjwoW1-28" value="" style="rounded=0;whiteSpace=wrap;html=1;" vertex="1" parent="kIT15DTywkXecoPjwoW1-166">
          <mxGeometry x="10" y="170" width="140" height="60" as="geometry" />
        </mxCell>
        <mxCell id="kIT15DTywkXecoPjwoW1-29" value="ELIMINAR RESERVA" style="text;html=1;align=center;verticalAlign=middle;whiteSpace=wrap;rounded=0;fontSize=20;" vertex="1" parent="kIT15DTywkXecoPjwoW1-166">
          <mxGeometry x="10" y="170" width="140" height="60" as="geometry" />
        </mxCell>
        <mxCell id="kIT15DTywkXecoPjwoW1-30" value="8:00" style="text;html=1;align=center;verticalAlign=middle;whiteSpace=wrap;rounded=0;" vertex="1" parent="kIT15DTywkXecoPjwoW1-166">
          <mxGeometry x="240" y="40" width="60" height="30" as="geometry" />
        </mxCell>
        <mxCell id="kIT15DTywkXecoPjwoW1-31" value="8:30" style="text;html=1;align=center;verticalAlign=middle;whiteSpace=wrap;rounded=0;" vertex="1" parent="kIT15DTywkXecoPjwoW1-166">
          <mxGeometry x="300" y="40" width="60" height="30" as="geometry" />
        </mxCell>
        <mxCell id="kIT15DTywkXecoPjwoW1-32" value="" style="endArrow=none;html=1;rounded=0;dashed=1;dashPattern=1 4;" edge="1" parent="kIT15DTywkXecoPjwoW1-166">
          <mxGeometry width="50" height="50" relative="1" as="geometry">
            <mxPoint x="420" y="700" as="sourcePoint" />
            <mxPoint x="420" y="40" as="targetPoint" />
          </mxGeometry>
        </mxCell>
        <mxCell id="kIT15DTywkXecoPjwoW1-33" value="" style="endArrow=none;html=1;rounded=0;dashed=1;dashPattern=1 4;" edge="1" parent="kIT15DTywkXecoPjwoW1-166">
          <mxGeometry width="50" height="50" relative="1" as="geometry">
            <mxPoint x="480" y="700" as="sourcePoint" />
            <mxPoint x="480" y="40" as="targetPoint" />
          </mxGeometry>
        </mxCell>
        <mxCell id="kIT15DTywkXecoPjwoW1-34" value="9:00" style="text;html=1;align=center;verticalAlign=middle;whiteSpace=wrap;rounded=0;" vertex="1" parent="kIT15DTywkXecoPjwoW1-166">
          <mxGeometry x="360" y="40" width="60" height="30" as="geometry" />
        </mxCell>
        <mxCell id="kIT15DTywkXecoPjwoW1-35" value="9:30" style="text;html=1;align=center;verticalAlign=middle;whiteSpace=wrap;rounded=0;" vertex="1" parent="kIT15DTywkXecoPjwoW1-166">
          <mxGeometry x="420" y="40" width="60" height="30" as="geometry" />
        </mxCell>
        <mxCell id="kIT15DTywkXecoPjwoW1-36" value="" style="endArrow=none;html=1;rounded=0;dashed=1;dashPattern=1 4;" edge="1" parent="kIT15DTywkXecoPjwoW1-166">
          <mxGeometry width="50" height="50" relative="1" as="geometry">
            <mxPoint x="540" y="700" as="sourcePoint" />
            <mxPoint x="540" y="40" as="targetPoint" />
          </mxGeometry>
        </mxCell>
        <mxCell id="kIT15DTywkXecoPjwoW1-37" value="" style="endArrow=none;html=1;rounded=0;dashed=1;dashPattern=1 4;" edge="1" parent="kIT15DTywkXecoPjwoW1-166">
          <mxGeometry width="50" height="50" relative="1" as="geometry">
            <mxPoint x="600" y="700" as="sourcePoint" />
            <mxPoint x="600" y="40" as="targetPoint" />
          </mxGeometry>
        </mxCell>
        <mxCell id="kIT15DTywkXecoPjwoW1-38" value="10:00" style="text;html=1;align=center;verticalAlign=middle;whiteSpace=wrap;rounded=0;" vertex="1" parent="kIT15DTywkXecoPjwoW1-166">
          <mxGeometry x="480" y="40" width="60" height="30" as="geometry" />
        </mxCell>
        <mxCell id="kIT15DTywkXecoPjwoW1-39" value="10:30" style="text;html=1;align=center;verticalAlign=middle;whiteSpace=wrap;rounded=0;" vertex="1" parent="kIT15DTywkXecoPjwoW1-166">
          <mxGeometry x="540" y="40" width="60" height="30" as="geometry" />
        </mxCell>
        <mxCell id="kIT15DTywkXecoPjwoW1-40" value="" style="endArrow=none;html=1;rounded=0;dashed=1;dashPattern=1 4;" edge="1" parent="kIT15DTywkXecoPjwoW1-166">
          <mxGeometry width="50" height="50" relative="1" as="geometry">
            <mxPoint x="660" y="700" as="sourcePoint" />
            <mxPoint x="660" y="40" as="targetPoint" />
          </mxGeometry>
        </mxCell>
        <mxCell id="kIT15DTywkXecoPjwoW1-41" value="" style="endArrow=none;html=1;rounded=0;dashed=1;dashPattern=1 4;" edge="1" parent="kIT15DTywkXecoPjwoW1-166">
          <mxGeometry width="50" height="50" relative="1" as="geometry">
            <mxPoint x="720" y="700" as="sourcePoint" />
            <mxPoint x="720" y="40" as="targetPoint" />
          </mxGeometry>
        </mxCell>
        <mxCell id="kIT15DTywkXecoPjwoW1-42" value="11:00" style="text;html=1;align=center;verticalAlign=middle;whiteSpace=wrap;rounded=0;" vertex="1" parent="kIT15DTywkXecoPjwoW1-166">
          <mxGeometry x="600" y="40" width="60" height="30" as="geometry" />
        </mxCell>
        <mxCell id="kIT15DTywkXecoPjwoW1-43" value="11:30" style="text;html=1;align=center;verticalAlign=middle;whiteSpace=wrap;rounded=0;" vertex="1" parent="kIT15DTywkXecoPjwoW1-166">
          <mxGeometry x="660" y="40" width="60" height="30" as="geometry" />
        </mxCell>
        <mxCell id="kIT15DTywkXecoPjwoW1-44" value="" style="endArrow=none;html=1;rounded=0;dashed=1;dashPattern=1 4;" edge="1" parent="kIT15DTywkXecoPjwoW1-166">
          <mxGeometry width="50" height="50" relative="1" as="geometry">
            <mxPoint x="780" y="700" as="sourcePoint" />
            <mxPoint x="780" y="40" as="targetPoint" />
          </mxGeometry>
        </mxCell>
        <mxCell id="kIT15DTywkXecoPjwoW1-45" value="" style="endArrow=none;html=1;rounded=0;dashed=1;dashPattern=1 4;" edge="1" parent="kIT15DTywkXecoPjwoW1-166">
          <mxGeometry width="50" height="50" relative="1" as="geometry">
            <mxPoint x="839" y="700" as="sourcePoint" />
            <mxPoint x="839" y="40" as="targetPoint" />
          </mxGeometry>
        </mxCell>
        <mxCell id="kIT15DTywkXecoPjwoW1-46" value="12:00" style="text;html=1;align=center;verticalAlign=middle;whiteSpace=wrap;rounded=0;" vertex="1" parent="kIT15DTywkXecoPjwoW1-166">
          <mxGeometry x="720" y="40" width="60" height="30" as="geometry" />
        </mxCell>
        <mxCell id="kIT15DTywkXecoPjwoW1-47" value="12:30" style="text;html=1;align=center;verticalAlign=middle;whiteSpace=wrap;rounded=0;" vertex="1" parent="kIT15DTywkXecoPjwoW1-166">
          <mxGeometry x="780" y="40" width="60" height="30" as="geometry" />
        </mxCell>
        <mxCell id="kIT15DTywkXecoPjwoW1-48" value="" style="endArrow=none;html=1;rounded=0;dashed=1;dashPattern=1 4;" edge="1" parent="kIT15DTywkXecoPjwoW1-166">
          <mxGeometry width="50" height="50" relative="1" as="geometry">
            <mxPoint x="900" y="700" as="sourcePoint" />
            <mxPoint x="900" y="40" as="targetPoint" />
          </mxGeometry>
        </mxCell>
        <mxCell id="kIT15DTywkXecoPjwoW1-49" value="" style="endArrow=none;html=1;rounded=0;dashed=1;dashPattern=1 4;" edge="1" parent="kIT15DTywkXecoPjwoW1-166">
          <mxGeometry width="50" height="50" relative="1" as="geometry">
            <mxPoint x="960" y="700" as="sourcePoint" />
            <mxPoint x="960" y="40" as="targetPoint" />
          </mxGeometry>
        </mxCell>
        <mxCell id="kIT15DTywkXecoPjwoW1-50" value="13:00" style="text;html=1;align=center;verticalAlign=middle;whiteSpace=wrap;rounded=0;" vertex="1" parent="kIT15DTywkXecoPjwoW1-166">
          <mxGeometry x="840" y="40" width="60" height="30" as="geometry" />
        </mxCell>
        <mxCell id="kIT15DTywkXecoPjwoW1-51" value="13:30" style="text;html=1;align=center;verticalAlign=middle;whiteSpace=wrap;rounded=0;" vertex="1" parent="kIT15DTywkXecoPjwoW1-166">
          <mxGeometry x="900" y="40" width="60" height="30" as="geometry" />
        </mxCell>
        <mxCell id="kIT15DTywkXecoPjwoW1-52" value="" style="endArrow=none;html=1;rounded=0;dashed=1;dashPattern=1 4;" edge="1" parent="kIT15DTywkXecoPjwoW1-166">
          <mxGeometry width="50" height="50" relative="1" as="geometry">
            <mxPoint x="1020" y="700" as="sourcePoint" />
            <mxPoint x="1020" y="40" as="targetPoint" />
          </mxGeometry>
        </mxCell>
        <mxCell id="kIT15DTywkXecoPjwoW1-53" value="" style="endArrow=none;html=1;rounded=0;dashed=1;dashPattern=1 4;" edge="1" parent="kIT15DTywkXecoPjwoW1-166">
          <mxGeometry width="50" height="50" relative="1" as="geometry">
            <mxPoint x="1080" y="700" as="sourcePoint" />
            <mxPoint x="1080" y="40" as="targetPoint" />
          </mxGeometry>
        </mxCell>
        <mxCell id="kIT15DTywkXecoPjwoW1-54" value="14:00" style="text;html=1;align=center;verticalAlign=middle;whiteSpace=wrap;rounded=0;" vertex="1" parent="kIT15DTywkXecoPjwoW1-166">
          <mxGeometry x="960" y="40" width="60" height="30" as="geometry" />
        </mxCell>
        <mxCell id="kIT15DTywkXecoPjwoW1-55" value="14:30" style="text;html=1;align=center;verticalAlign=middle;whiteSpace=wrap;rounded=0;" vertex="1" parent="kIT15DTywkXecoPjwoW1-166">
          <mxGeometry x="1020" y="40" width="60" height="30" as="geometry" />
        </mxCell>
        <mxCell id="kIT15DTywkXecoPjwoW1-56" value="" style="endArrow=none;html=1;rounded=0;dashed=1;dashPattern=1 4;" edge="1" parent="kIT15DTywkXecoPjwoW1-166">
          <mxGeometry width="50" height="50" relative="1" as="geometry">
            <mxPoint x="1140" y="700" as="sourcePoint" />
            <mxPoint x="1140" y="40" as="targetPoint" />
          </mxGeometry>
        </mxCell>
        <mxCell id="kIT15DTywkXecoPjwoW1-57" value="" style="endArrow=none;html=1;rounded=0;dashed=1;dashPattern=1 4;" edge="1" parent="kIT15DTywkXecoPjwoW1-166">
          <mxGeometry width="50" height="50" relative="1" as="geometry">
            <mxPoint x="1200" y="700" as="sourcePoint" />
            <mxPoint x="1200" y="40" as="targetPoint" />
          </mxGeometry>
        </mxCell>
        <mxCell id="kIT15DTywkXecoPjwoW1-58" value="15:00" style="text;html=1;align=center;verticalAlign=middle;whiteSpace=wrap;rounded=0;" vertex="1" parent="kIT15DTywkXecoPjwoW1-166">
          <mxGeometry x="1080" y="40" width="60" height="30" as="geometry" />
        </mxCell>
        <mxCell id="kIT15DTywkXecoPjwoW1-59" value="15:30" style="text;html=1;align=center;verticalAlign=middle;whiteSpace=wrap;rounded=0;" vertex="1" parent="kIT15DTywkXecoPjwoW1-166">
          <mxGeometry x="1140" y="40" width="60" height="30" as="geometry" />
        </mxCell>
        <mxCell id="kIT15DTywkXecoPjwoW1-60" value="16:00" style="text;html=1;align=center;verticalAlign=middle;whiteSpace=wrap;rounded=0;" vertex="1" parent="kIT15DTywkXecoPjwoW1-166">
          <mxGeometry x="1200" y="40" width="60" height="30" as="geometry" />
        </mxCell>
        <mxCell id="kIT15DTywkXecoPjwoW1-61" value="" style="group" vertex="1" connectable="0" parent="kIT15DTywkXecoPjwoW1-166">
          <mxGeometry x="1160" width="40" height="20" as="geometry" />
        </mxCell>
        <mxCell id="kIT15DTywkXecoPjwoW1-62" value="" style="rounded=0;whiteSpace=wrap;html=1;" vertex="1" parent="kIT15DTywkXecoPjwoW1-61">
          <mxGeometry width="40" height="20" as="geometry" />
        </mxCell>
        <mxCell id="kIT15DTywkXecoPjwoW1-63" value="" style="endArrow=none;html=1;rounded=0;" edge="1" parent="kIT15DTywkXecoPjwoW1-61">
          <mxGeometry width="50" height="50" relative="1" as="geometry">
            <mxPoint x="15" y="9.879999999999995" as="sourcePoint" />
            <mxPoint x="25" y="9.879999999999995" as="targetPoint" />
          </mxGeometry>
        </mxCell>
        <mxCell id="kIT15DTywkXecoPjwoW1-64" value="" style="group" vertex="1" connectable="0" parent="kIT15DTywkXecoPjwoW1-166">
          <mxGeometry x="1200" width="40" height="20" as="geometry" />
        </mxCell>
        <mxCell id="kIT15DTywkXecoPjwoW1-65" value="" style="rounded=0;whiteSpace=wrap;html=1;" vertex="1" parent="kIT15DTywkXecoPjwoW1-64">
          <mxGeometry width="40" height="20" as="geometry" />
        </mxCell>
        <mxCell id="kIT15DTywkXecoPjwoW1-66" value="" style="rounded=0;whiteSpace=wrap;html=1;" vertex="1" parent="kIT15DTywkXecoPjwoW1-64">
          <mxGeometry x="15" y="5" width="10" height="10" as="geometry" />
        </mxCell>
        <mxCell id="kIT15DTywkXecoPjwoW1-67" value="" style="group" vertex="1" connectable="0" parent="kIT15DTywkXecoPjwoW1-166">
          <mxGeometry x="1240" width="40" height="20" as="geometry" />
        </mxCell>
        <mxCell id="kIT15DTywkXecoPjwoW1-68" value="" style="rounded=0;whiteSpace=wrap;html=1;" vertex="1" parent="kIT15DTywkXecoPjwoW1-67">
          <mxGeometry width="40" height="20" as="geometry" />
        </mxCell>
        <mxCell id="kIT15DTywkXecoPjwoW1-69" value="" style="group" vertex="1" connectable="0" parent="kIT15DTywkXecoPjwoW1-67">
          <mxGeometry x="15" y="5" width="10" height="10" as="geometry" />
        </mxCell>
        <mxCell id="kIT15DTywkXecoPjwoW1-70" value="" style="endArrow=none;html=1;rounded=0;" edge="1" parent="kIT15DTywkXecoPjwoW1-69">
          <mxGeometry width="50" height="50" relative="1" as="geometry">
            <mxPoint y="10" as="sourcePoint" />
            <mxPoint x="10" as="targetPoint" />
          </mxGeometry>
        </mxCell>
        <mxCell id="kIT15DTywkXecoPjwoW1-71" value="" style="endArrow=none;html=1;rounded=0;" edge="1" parent="kIT15DTywkXecoPjwoW1-69">
          <mxGeometry width="50" height="50" relative="1" as="geometry">
            <mxPoint x="10" y="10" as="sourcePoint" />
            <mxPoint as="targetPoint" />
          </mxGeometry>
        </mxCell>
        <mxCell id="kIT15DTywkXecoPjwoW1-72" value="" style="endArrow=none;html=1;rounded=0;" edge="1" parent="kIT15DTywkXecoPjwoW1-166">
          <mxGeometry width="50" height="50" relative="1" as="geometry">
            <mxPoint y="20" as="sourcePoint" />
            <mxPoint x="1280" y="20" as="targetPoint" />
          </mxGeometry>
        </mxCell>
        <mxCell id="kIT15DTywkXecoPjwoW1-73" value="Martes" style="rounded=0;whiteSpace=wrap;html=1;" vertex="1" parent="kIT15DTywkXecoPjwoW1-166">
          <mxGeometry x="170" y="100" width="70" height="30" as="geometry" />
        </mxCell>
        <mxCell id="kIT15DTywkXecoPjwoW1-75" value="Miercoles" style="rounded=0;whiteSpace=wrap;html=1;" vertex="1" parent="kIT15DTywkXecoPjwoW1-166">
          <mxGeometry x="170" y="130" width="70" height="30" as="geometry" />
        </mxCell>
        <mxCell id="kIT15DTywkXecoPjwoW1-77" value="Jueves" style="rounded=0;whiteSpace=wrap;html=1;" vertex="1" parent="kIT15DTywkXecoPjwoW1-166">
          <mxGeometry x="170" y="160" width="70" height="30" as="geometry" />
        </mxCell>
        <mxCell id="kIT15DTywkXecoPjwoW1-79" value="Viernes" style="rounded=0;whiteSpace=wrap;html=1;" vertex="1" parent="kIT15DTywkXecoPjwoW1-166">
          <mxGeometry x="170" y="190" width="70" height="30" as="geometry" />
        </mxCell>
        <mxCell id="kIT15DTywkXecoPjwoW1-81" value="Sabado" style="rounded=0;whiteSpace=wrap;html=1;" vertex="1" parent="kIT15DTywkXecoPjwoW1-166">
          <mxGeometry x="170" y="220" width="70" height="30" as="geometry" />
        </mxCell>
        <mxCell id="kIT15DTywkXecoPjwoW1-83" value="Domingo" style="rounded=0;whiteSpace=wrap;html=1;" vertex="1" parent="kIT15DTywkXecoPjwoW1-166">
          <mxGeometry x="170" y="250" width="70" height="30" as="geometry" />
        </mxCell>
        <mxCell id="kIT15DTywkXecoPjwoW1-85" value="" style="endArrow=none;html=1;strokeWidth=2;rounded=0;dashed=1;dashPattern=1 4;" edge="1" parent="kIT15DTywkXecoPjwoW1-166">
          <mxGeometry width="50" height="50" relative="1" as="geometry">
            <mxPoint x="240" y="100.04761904761926" as="sourcePoint" />
            <mxPoint x="1260.9523809523807" y="100" as="targetPoint" />
          </mxGeometry>
        </mxCell>
        <mxCell id="kIT15DTywkXecoPjwoW1-86" value="" style="endArrow=none;html=1;strokeWidth=2;rounded=0;dashed=1;dashPattern=1 4;" edge="1" parent="kIT15DTywkXecoPjwoW1-166">
          <mxGeometry width="50" height="50" relative="1" as="geometry">
            <mxPoint x="240" y="130.04761904761926" as="sourcePoint" />
            <mxPoint x="1260.9523809523807" y="130" as="targetPoint" />
          </mxGeometry>
        </mxCell>
        <mxCell id="kIT15DTywkXecoPjwoW1-87" value="" style="endArrow=none;html=1;strokeWidth=2;rounded=0;dashed=1;dashPattern=1 4;" edge="1" parent="kIT15DTywkXecoPjwoW1-166">
          <mxGeometry width="50" height="50" relative="1" as="geometry">
            <mxPoint x="240" y="160.04761904761926" as="sourcePoint" />
            <mxPoint x="1260.9523809523807" y="160" as="targetPoint" />
          </mxGeometry>
        </mxCell>
        <mxCell id="kIT15DTywkXecoPjwoW1-88" value="" style="endArrow=none;html=1;strokeWidth=2;rounded=0;dashed=1;dashPattern=1 4;" edge="1" parent="kIT15DTywkXecoPjwoW1-166">
          <mxGeometry width="50" height="50" relative="1" as="geometry">
            <mxPoint x="240" y="190.04761904761926" as="sourcePoint" />
            <mxPoint x="1260.9523809523807" y="190" as="targetPoint" />
          </mxGeometry>
        </mxCell>
        <mxCell id="kIT15DTywkXecoPjwoW1-89" value="" style="endArrow=none;html=1;strokeWidth=2;rounded=0;dashed=1;dashPattern=1 4;" edge="1" parent="kIT15DTywkXecoPjwoW1-166">
          <mxGeometry width="50" height="50" relative="1" as="geometry">
            <mxPoint x="240" y="220.04761904761926" as="sourcePoint" />
            <mxPoint x="1260.9523809523807" y="220" as="targetPoint" />
          </mxGeometry>
        </mxCell>
        <mxCell id="kIT15DTywkXecoPjwoW1-90" value="" style="endArrow=none;html=1;strokeWidth=2;rounded=0;dashed=1;dashPattern=1 4;" edge="1" parent="kIT15DTywkXecoPjwoW1-166">
          <mxGeometry width="50" height="50" relative="1" as="geometry">
            <mxPoint x="240" y="249.8176190476188" as="sourcePoint" />
            <mxPoint x="1260.9523809523807" y="249.76999999999998" as="targetPoint" />
          </mxGeometry>
        </mxCell>
        <mxCell id="kIT15DTywkXecoPjwoW1-91" value="" style="endArrow=none;html=1;strokeWidth=2;rounded=0;dashed=1;dashPattern=1 4;" edge="1" parent="kIT15DTywkXecoPjwoW1-166">
          <mxGeometry width="50" height="50" relative="1" as="geometry">
            <mxPoint x="240" y="280.04761904761926" as="sourcePoint" />
            <mxPoint x="1260.9523809523807" y="280" as="targetPoint" />
          </mxGeometry>
        </mxCell>
        <mxCell id="kIT15DTywkXecoPjwoW1-92" value="" style="rounded=0;whiteSpace=wrap;html=1;fillColor=#008a00;fontColor=#ffffff;strokeColor=#005700;" vertex="1" parent="kIT15DTywkXecoPjwoW1-166">
          <mxGeometry x="480" y="100" width="120" height="30" as="geometry" />
        </mxCell>
        <mxCell id="kIT15DTywkXecoPjwoW1-93" value="Maria" style="text;html=1;align=center;verticalAlign=middle;whiteSpace=wrap;rounded=0;" vertex="1" parent="kIT15DTywkXecoPjwoW1-166">
          <mxGeometry x="510" y="100" width="60" height="20" as="geometry" />
        </mxCell>
        <mxCell id="kIT15DTywkXecoPjwoW1-94" value="Estado: confirmado" style="text;html=1;align=center;verticalAlign=middle;whiteSpace=wrap;rounded=0;fontSize=8;" vertex="1" parent="kIT15DTywkXecoPjwoW1-166">
          <mxGeometry x="495" y="120" width="90" height="10" as="geometry" />
        </mxCell>
        <mxCell id="kIT15DTywkXecoPjwoW1-95" value="" style="rounded=0;whiteSpace=wrap;html=1;fillColor=#a20025;strokeColor=#6F0000;fontColor=#ffffff;" vertex="1" parent="kIT15DTywkXecoPjwoW1-166">
          <mxGeometry x="900" y="160" width="120" height="30" as="geometry" />
        </mxCell>
        <mxCell id="kIT15DTywkXecoPjwoW1-96" value="Estado: pendiente" style="text;html=1;align=center;verticalAlign=middle;whiteSpace=wrap;rounded=0;fontSize=8;" vertex="1" parent="kIT15DTywkXecoPjwoW1-166">
          <mxGeometry x="915" y="180" width="90" height="10" as="geometry" />
        </mxCell>
        <mxCell id="kIT15DTywkXecoPjwoW1-97" value="" style="rounded=0;whiteSpace=wrap;html=1;fillColor=#1ba1e2;fontColor=#ffffff;strokeColor=#006EAF;" vertex="1" parent="kIT15DTywkXecoPjwoW1-166">
          <mxGeometry x="300" y="70" width="120" height="30" as="geometry" />
        </mxCell>
        <mxCell id="kIT15DTywkXecoPjwoW1-98" value="Juan" style="text;html=1;align=center;verticalAlign=middle;whiteSpace=wrap;rounded=0;" vertex="1" parent="kIT15DTywkXecoPjwoW1-166">
          <mxGeometry x="330" y="70" width="60" height="20" as="geometry" />
        </mxCell>
        <mxCell id="kIT15DTywkXecoPjwoW1-99" value="Estado: En curso" style="text;html=1;align=center;verticalAlign=middle;whiteSpace=wrap;rounded=0;fontSize=8;" vertex="1" parent="kIT15DTywkXecoPjwoW1-166">
          <mxGeometry x="315" y="90" width="90" height="10" as="geometry" />
        </mxCell>
        <mxCell id="kIT15DTywkXecoPjwoW1-100" value="JosÃ©" style="text;html=1;align=center;verticalAlign=middle;whiteSpace=wrap;rounded=0;" vertex="1" parent="kIT15DTywkXecoPjwoW1-166">
          <mxGeometry x="930" y="160" width="60" height="20" as="geometry" />
        </mxCell>
        <mxCell id="kIT15DTywkXecoPjwoW1-101" value="" style="rounded=0;whiteSpace=wrap;html=1;fillColor=#d80073;fontColor=#ffffff;strokeColor=#A50040;" vertex="1" parent="kIT15DTywkXecoPjwoW1-166">
          <mxGeometry x="660" y="220" width="120" height="30" as="geometry" />
        </mxCell>
        <mxCell id="kIT15DTywkXecoPjwoW1-102" value="Lucia" style="text;html=1;align=center;verticalAlign=middle;whiteSpace=wrap;rounded=0;" vertex="1" parent="kIT15DTywkXecoPjwoW1-166">
          <mxGeometry x="690" y="220" width="60" height="20" as="geometry" />
        </mxCell>
        <mxCell id="kIT15DTywkXecoPjwoW1-103" value="Estado: reprogramado - clima" style="text;html=1;align=center;verticalAlign=middle;whiteSpace=wrap;rounded=0;fontSize=8;" vertex="1" parent="kIT15DTywkXecoPjwoW1-166">
          <mxGeometry x="660" y="240" width="120" height="10" as="geometry" />
        </mxCell>
        <mxCell id="kIT15DTywkXecoPjwoW1-104" value="" style="rounded=0;whiteSpace=wrap;html=1;fillColor=#1ba1e2;fontColor=#ffffff;strokeColor=#006EAF;" vertex="1" parent="kIT15DTywkXecoPjwoW1-166">
          <mxGeometry x="420" y="70" width="120" height="30" as="geometry" />
        </mxCell>
        <mxCell id="kIT15DTywkXecoPjwoW1-105" value="Juan" style="text;html=1;align=center;verticalAlign=middle;whiteSpace=wrap;rounded=0;" vertex="1" parent="kIT15DTywkXecoPjwoW1-166">
          <mxGeometry x="450" y="70" width="60" height="20" as="geometry" />
        </mxCell>
        <mxCell id="kIT15DTywkXecoPjwoW1-106" value="Estado: tiempo extra" style="text;html=1;align=center;verticalAlign=middle;whiteSpace=wrap;rounded=0;fontSize=8;" vertex="1" parent="kIT15DTywkXecoPjwoW1-166">
          <mxGeometry x="420" y="90" width="120" height="10" as="geometry" />
        </mxCell>
        <mxCell id="kIT15DTywkXecoPjwoW1-132" value="Lunes" style="rounded=0;whiteSpace=wrap;html=1;" vertex="1" parent="kIT15DTywkXecoPjwoW1-166">
          <mxGeometry x="170" y="280" width="70" height="30" as="geometry" />
        </mxCell>
        <mxCell id="kIT15DTywkXecoPjwoW1-133" value="Martes" style="rounded=0;whiteSpace=wrap;html=1;" vertex="1" parent="kIT15DTywkXecoPjwoW1-166">
          <mxGeometry x="170" y="310" width="70" height="30" as="geometry" />
        </mxCell>
        <mxCell id="kIT15DTywkXecoPjwoW1-134" value="Miercoles" style="rounded=0;whiteSpace=wrap;html=1;" vertex="1" parent="kIT15DTywkXecoPjwoW1-166">
          <mxGeometry x="170" y="340" width="70" height="30" as="geometry" />
        </mxCell>
        <mxCell id="kIT15DTywkXecoPjwoW1-135" value="Jueves" style="rounded=0;whiteSpace=wrap;html=1;" vertex="1" parent="kIT15DTywkXecoPjwoW1-166">
          <mxGeometry x="170" y="370" width="70" height="30" as="geometry" />
        </mxCell>
        <mxCell id="kIT15DTywkXecoPjwoW1-136" value="Viernes" style="rounded=0;whiteSpace=wrap;html=1;" vertex="1" parent="kIT15DTywkXecoPjwoW1-166">
          <mxGeometry x="170" y="400" width="70" height="30" as="geometry" />
        </mxCell>
        <mxCell id="kIT15DTywkXecoPjwoW1-137" value="Sabado" style="rounded=0;whiteSpace=wrap;html=1;" vertex="1" parent="kIT15DTywkXecoPjwoW1-166">
          <mxGeometry x="170" y="430" width="70" height="30" as="geometry" />
        </mxCell>
        <mxCell id="kIT15DTywkXecoPjwoW1-138" value="Domingo" style="rounded=0;whiteSpace=wrap;html=1;" vertex="1" parent="kIT15DTywkXecoPjwoW1-166">
          <mxGeometry x="170" y="460" width="70" height="30" as="geometry" />
        </mxCell>
        <mxCell id="kIT15DTywkXecoPjwoW1-139" value="Lunes" style="rounded=0;whiteSpace=wrap;html=1;" vertex="1" parent="kIT15DTywkXecoPjwoW1-166">
          <mxGeometry x="170" y="490" width="70" height="30" as="geometry" />
        </mxCell>
        <mxCell id="kIT15DTywkXecoPjwoW1-140" value="Martes" style="rounded=0;whiteSpace=wrap;html=1;" vertex="1" parent="kIT15DTywkXecoPjwoW1-166">
          <mxGeometry x="170" y="520" width="70" height="30" as="geometry" />
        </mxCell>
        <mxCell id="kIT15DTywkXecoPjwoW1-141" value="Miercoles" style="rounded=0;whiteSpace=wrap;html=1;" vertex="1" parent="kIT15DTywkXecoPjwoW1-166">
          <mxGeometry x="170" y="550" width="70" height="30" as="geometry" />
        </mxCell>
        <mxCell id="kIT15DTywkXecoPjwoW1-142" value="Jueves" style="rounded=0;whiteSpace=wrap;html=1;" vertex="1" parent="kIT15DTywkXecoPjwoW1-166">
          <mxGeometry x="170" y="580" width="70" height="30" as="geometry" />
        </mxCell>
        <mxCell id="kIT15DTywkXecoPjwoW1-143" value="Viernes" style="rounded=0;whiteSpace=wrap;html=1;" vertex="1" parent="kIT15DTywkXecoPjwoW1-166">
          <mxGeometry x="170" y="610" width="70" height="30" as="geometry" />
        </mxCell>
        <mxCell id="kIT15DTywkXecoPjwoW1-144" value="Sabado" style="rounded=0;whiteSpace=wrap;html=1;" vertex="1" parent="kIT15DTywkXecoPjwoW1-166">
          <mxGeometry x="170" y="640" width="70" height="30" as="geometry" />
        </mxCell>
        <mxCell id="kIT15DTywkXecoPjwoW1-145" value="Domingo" style="rounded=0;whiteSpace=wrap;html=1;" vertex="1" parent="kIT15DTywkXecoPjwoW1-166">
          <mxGeometry x="170" y="670" width="70" height="30" as="geometry" />
        </mxCell>
        <mxCell id="kIT15DTywkXecoPjwoW1-146" value="" style="endArrow=none;html=1;strokeWidth=2;rounded=0;dashed=1;dashPattern=1 4;" edge="1" parent="kIT15DTywkXecoPjwoW1-166">
          <mxGeometry width="50" height="50" relative="1" as="geometry">
            <mxPoint x="240" y="310.04761904761926" as="sourcePoint" />
            <mxPoint x="1260.9523809523807" y="310" as="targetPoint" />
          </mxGeometry>
        </mxCell>
        <mxCell id="kIT15DTywkXecoPjwoW1-147" value="" style="endArrow=none;html=1;strokeWidth=2;rounded=0;dashed=1;dashPattern=1 4;" edge="1" parent="kIT15DTywkXecoPjwoW1-166">
          <mxGeometry width="50" height="50" relative="1" as="geometry">
            <mxPoint x="240" y="340.04761904761926" as="sourcePoint" />
            <mxPoint x="1260.9523809523807" y="340" as="targetPoint" />
          </mxGeometry>
        </mxCell>
        <mxCell id="kIT15DTywkXecoPjwoW1-148" value="" style="endArrow=none;html=1;strokeWidth=2;rounded=0;dashed=1;dashPattern=1 4;" edge="1" parent="kIT15DTywkXecoPjwoW1-166">
          <mxGeometry width="50" height="50" relative="1" as="geometry">
            <mxPoint x="240" y="370.04761904761926" as="sourcePoint" />
            <mxPoint x="1260.9523809523807" y="370" as="targetPoint" />
          </mxGeometry>
        </mxCell>
        <mxCell id="kIT15DTywkXecoPjwoW1-149" value="" style="endArrow=none;html=1;strokeWidth=2;rounded=0;dashed=1;dashPattern=1 4;" edge="1" parent="kIT15DTywkXecoPjwoW1-166">
          <mxGeometry width="50" height="50" relative="1" as="geometry">
            <mxPoint x="240" y="400.04761904761926" as="sourcePoint" />
            <mxPoint x="1260.9523809523807" y="400" as="targetPoint" />
          </mxGeometry>
        </mxCell>
        <mxCell id="kIT15DTywkXecoPjwoW1-150" value="" style="endArrow=none;html=1;strokeWidth=2;rounded=0;dashed=1;dashPattern=1 4;" edge="1" parent="kIT15DTywkXecoPjwoW1-166">
          <mxGeometry width="50" height="50" relative="1" as="geometry">
            <mxPoint x="240" y="430.04761904761926" as="sourcePoint" />
            <mxPoint x="1260.9523809523807" y="430" as="targetPoint" />
          </mxGeometry>
        </mxCell>
        <mxCell id="kIT15DTywkXecoPjwoW1-151" value="" style="endArrow=none;html=1;strokeWidth=2;rounded=0;dashed=1;dashPattern=1 4;" edge="1" parent="kIT15DTywkXecoPjwoW1-166">
          <mxGeometry width="50" height="50" relative="1" as="geometry">
            <mxPoint x="240" y="459.8176190476188" as="sourcePoint" />
            <mxPoint x="1260.9523809523807" y="459.77" as="targetPoint" />
          </mxGeometry>
        </mxCell>
        <mxCell id="kIT15DTywkXecoPjwoW1-152" value="" style="endArrow=none;html=1;strokeWidth=2;rounded=0;dashed=1;dashPattern=1 4;" edge="1" parent="kIT15DTywkXecoPjwoW1-166">
          <mxGeometry width="50" height="50" relative="1" as="geometry">
            <mxPoint x="240" y="490.04761904761926" as="sourcePoint" />
            <mxPoint x="1260.9523809523807" y="490" as="targetPoint" />
          </mxGeometry>
        </mxCell>
        <mxCell id="kIT15DTywkXecoPjwoW1-153" value="" style="endArrow=none;html=1;strokeWidth=2;rounded=0;dashed=1;dashPattern=1 4;" edge="1" parent="kIT15DTywkXecoPjwoW1-166">
          <mxGeometry width="50" height="50" relative="1" as="geometry">
            <mxPoint x="240" y="520.0476190476193" as="sourcePoint" />
            <mxPoint x="1260.9523809523807" y="520" as="targetPoint" />
          </mxGeometry>
        </mxCell>
        <mxCell id="kIT15DTywkXecoPjwoW1-154" value="" style="endArrow=none;html=1;strokeWidth=2;rounded=0;dashed=1;dashPattern=1 4;" edge="1" parent="kIT15DTywkXecoPjwoW1-166">
          <mxGeometry width="50" height="50" relative="1" as="geometry">
            <mxPoint x="240" y="550.0476190476193" as="sourcePoint" />
            <mxPoint x="1260.9523809523807" y="550" as="targetPoint" />
          </mxGeometry>
        </mxCell>
        <mxCell id="kIT15DTywkXecoPjwoW1-155" value="" style="endArrow=none;html=1;strokeWidth=2;rounded=0;dashed=1;dashPattern=1 4;" edge="1" parent="kIT15DTywkXecoPjwoW1-166">
          <mxGeometry width="50" height="50" relative="1" as="geometry">
            <mxPoint x="240" y="580.0476190476193" as="sourcePoint" />
            <mxPoint x="1260.9523809523807" y="580" as="targetPoint" />
          </mxGeometry>
        </mxCell>
        <mxCell id="kIT15DTywkXecoPjwoW1-156" value="" style="endArrow=none;html=1;strokeWidth=2;rounded=0;dashed=1;dashPattern=1 4;" edge="1" parent="kIT15DTywkXecoPjwoW1-166">
          <mxGeometry width="50" height="50" relative="1" as="geometry">
            <mxPoint x="240" y="610.0476190476193" as="sourcePoint" />
            <mxPoint x="1260.9523809523807" y="610" as="targetPoint" />
          </mxGeometry>
        </mxCell>
        <mxCell id="kIT15DTywkXecoPjwoW1-157" value="" style="endArrow=none;html=1;strokeWidth=2;rounded=0;dashed=1;dashPattern=1 4;" edge="1" parent="kIT15DTywkXecoPjwoW1-166">
          <mxGeometry width="50" height="50" relative="1" as="geometry">
            <mxPoint x="240" y="640.0476190476193" as="sourcePoint" />
            <mxPoint x="1260.9523809523807" y="640" as="targetPoint" />
          </mxGeometry>
        </mxCell>
        <mxCell id="kIT15DTywkXecoPjwoW1-158" value="" style="endArrow=none;html=1;strokeWidth=2;rounded=0;dashed=1;dashPattern=1 4;" edge="1" parent="kIT15DTywkXecoPjwoW1-166">
          <mxGeometry width="50" height="50" relative="1" as="geometry">
            <mxPoint x="240" y="669.8176190476188" as="sourcePoint" />
            <mxPoint x="1260.9523809523807" y="669.77" as="targetPoint" />
          </mxGeometry>
        </mxCell>
        <mxCell id="kIT15DTywkXecoPjwoW1-162" value="SUCURSALES" style="rounded=0;whiteSpace=wrap;html=1;fontSize=20;" vertex="1" parent="kIT15DTywkXecoPjwoW1-166">
          <mxGeometry x="10" y="240" width="140" height="60" as="geometry" />
        </mxCell>
        <mxCell id="kIT15DTywkXecoPjwoW1-164" value="" style="endArrow=none;html=1;rounded=0;fillColor=#1ba1e2;strokeColor=#006EAF;" edge="1" parent="kIT15DTywkXecoPjwoW1-166">
          <mxGeometry width="50" height="50" relative="1" as="geometry">
            <mxPoint x="405" y="700" as="sourcePoint" />
            <mxPoint x="405" y="20" as="targetPoint" />
          </mxGeometry>
        </mxCell>
        <mxCell id="kIT15DTywkXecoPjwoW1-165" value="Hora actual" style="text;html=1;align=center;verticalAlign=middle;whiteSpace=wrap;rounded=0;fillColor=#1ba1e2;fontColor=#ffffff;strokeColor=#006EAF;" vertex="1" parent="kIT15DTywkXecoPjwoW1-166">
          <mxGeometry x="405" y="20" width="75" height="20" as="geometry" />
        </mxCell>
        <mxCell id="kIT15DTywkXecoPjwoW1-167" value="" style="rounded=0;whiteSpace=wrap;html=1;movable=1;resizable=1;rotatable=1;deletable=1;editable=1;locked=0;connectable=1;" vertex="1" parent="1">
          <mxGeometry x="240" y="2410" width="1280" height="720" as="geometry" />
        </mxCell>
        <mxCell id="kIT15DTywkXecoPjwoW1-168" value="" style="rounded=0;whiteSpace=wrap;html=1;movable=1;resizable=1;rotatable=1;deletable=1;editable=1;locked=0;connectable=1;" vertex="1" parent="1">
          <mxGeometry x="250" y="2415" width="10" height="10" as="geometry" />
        </mxCell>
        <mxCell id="kIT15DTywkXecoPjwoW1-169" value="Balines Mojados" style="text;html=1;strokeColor=none;fillColor=none;align=center;verticalAlign=middle;whiteSpace=wrap;rounded=0;fontSize=11;movable=1;resizable=1;rotatable=1;deletable=1;editable=1;locked=0;connectable=1;" vertex="1" parent="1">
          <mxGeometry x="260" y="2412.5" width="90" height="15" as="geometry" />
        </mxCell>
        <mxCell id="kIT15DTywkXecoPjwoW1-170" value="" style="group;movable=1;resizable=1;rotatable=1;deletable=1;editable=1;locked=0;connectable=1;" vertex="1" connectable="0" parent="1">
          <mxGeometry x="1400" y="2410" width="40" height="20" as="geometry" />
        </mxCell>
        <mxCell id="kIT15DTywkXecoPjwoW1-171" value="" style="rounded=0;whiteSpace=wrap;html=1;movable=1;resizable=1;rotatable=1;deletable=1;editable=1;locked=0;connectable=1;" vertex="1" parent="kIT15DTywkXecoPjwoW1-170">
          <mxGeometry width="40" height="20" as="geometry" />
        </mxCell>
        <mxCell id="kIT15DTywkXecoPjwoW1-172" value="" style="endArrow=none;html=1;rounded=0;movable=1;resizable=1;rotatable=1;deletable=1;editable=1;locked=0;connectable=1;" edge="1" parent="kIT15DTywkXecoPjwoW1-170">
          <mxGeometry width="50" height="50" relative="1" as="geometry">
            <mxPoint x="15" y="9.879999999999995" as="sourcePoint" />
            <mxPoint x="25" y="9.879999999999995" as="targetPoint" />
          </mxGeometry>
        </mxCell>
        <mxCell id="kIT15DTywkXecoPjwoW1-173" value="" style="group;movable=1;resizable=1;rotatable=1;deletable=1;editable=1;locked=0;connectable=1;" vertex="1" connectable="0" parent="1">
          <mxGeometry x="1440" y="2410" width="40" height="20" as="geometry" />
        </mxCell>
        <mxCell id="kIT15DTywkXecoPjwoW1-174" value="" style="rounded=0;whiteSpace=wrap;html=1;movable=1;resizable=1;rotatable=1;deletable=1;editable=1;locked=0;connectable=1;" vertex="1" parent="kIT15DTywkXecoPjwoW1-173">
          <mxGeometry width="40" height="20" as="geometry" />
        </mxCell>
        <mxCell id="kIT15DTywkXecoPjwoW1-175" value="" style="rounded=0;whiteSpace=wrap;html=1;movable=1;resizable=1;rotatable=1;deletable=1;editable=1;locked=0;connectable=1;" vertex="1" parent="kIT15DTywkXecoPjwoW1-173">
          <mxGeometry x="15" y="5" width="10" height="10" as="geometry" />
        </mxCell>
        <mxCell id="kIT15DTywkXecoPjwoW1-176" value="" style="group;movable=1;resizable=1;rotatable=1;deletable=1;editable=1;locked=0;connectable=1;" vertex="1" connectable="0" parent="1">
          <mxGeometry x="1480" y="2410" width="40" height="20" as="geometry" />
        </mxCell>
        <mxCell id="kIT15DTywkXecoPjwoW1-177" value="" style="rounded=0;whiteSpace=wrap;html=1;movable=1;resizable=1;rotatable=1;deletable=1;editable=1;locked=0;connectable=1;" vertex="1" parent="kIT15DTywkXecoPjwoW1-176">
          <mxGeometry width="40" height="20" as="geometry" />
        </mxCell>
        <mxCell id="kIT15DTywkXecoPjwoW1-178" value="" style="group;movable=1;resizable=1;rotatable=1;deletable=1;editable=1;locked=0;connectable=1;" vertex="1" connectable="0" parent="kIT15DTywkXecoPjwoW1-176">
          <mxGeometry x="15" y="5" width="10" height="10" as="geometry" />
        </mxCell>
        <mxCell id="kIT15DTywkXecoPjwoW1-179" value="" style="endArrow=none;html=1;rounded=0;movable=1;resizable=1;rotatable=1;deletable=1;editable=1;locked=0;connectable=1;" edge="1" parent="kIT15DTywkXecoPjwoW1-178">
          <mxGeometry width="50" height="50" relative="1" as="geometry">
            <mxPoint y="10" as="sourcePoint" />
            <mxPoint x="10" as="targetPoint" />
          </mxGeometry>
        </mxCell>
        <mxCell id="kIT15DTywkXecoPjwoW1-180" value="" style="endArrow=none;html=1;rounded=0;movable=1;resizable=1;rotatable=1;deletable=1;editable=1;locked=0;connectable=1;" edge="1" parent="kIT15DTywkXecoPjwoW1-178">
          <mxGeometry width="50" height="50" relative="1" as="geometry">
            <mxPoint x="10" y="10" as="sourcePoint" />
            <mxPoint as="targetPoint" />
          </mxGeometry>
        </mxCell>
        <mxCell id="kIT15DTywkXecoPjwoW1-181" value="" style="endArrow=none;html=1;rounded=0;movable=1;resizable=1;rotatable=1;deletable=1;editable=1;locked=0;connectable=1;" edge="1" parent="1">
          <mxGeometry width="50" height="50" relative="1" as="geometry">
            <mxPoint x="240" y="2430" as="sourcePoint" />
            <mxPoint x="1520" y="2430" as="targetPoint" />
          </mxGeometry>
        </mxCell>
        <mxCell id="kIT15DTywkXecoPjwoW1-183" value="CANCHA 1" style="rounded=0;whiteSpace=wrap;html=1;fontSize=25;" vertex="1" parent="1">
          <mxGeometry x="320" y="2532.5" width="160" height="55" as="geometry" />
        </mxCell>
        <mxCell id="kIT15DTywkXecoPjwoW1-184" value="CANCHA 2" style="rounded=0;whiteSpace=wrap;html=1;fontSize=25;" vertex="1" parent="1">
          <mxGeometry x="640" y="2532.5" width="160" height="55" as="geometry" />
        </mxCell>
        <mxCell id="kIT15DTywkXecoPjwoW1-185" value="CANCHA 3" style="rounded=0;whiteSpace=wrap;html=1;fontSize=25;" vertex="1" parent="1">
          <mxGeometry x="960" y="2532.5" width="160" height="55" as="geometry" />
        </mxCell>
        <mxCell id="kIT15DTywkXecoPjwoW1-186" value="CANCHA 4" style="rounded=0;whiteSpace=wrap;html=1;fontSize=25;" vertex="1" parent="1">
          <mxGeometry x="1280" y="2532.5" width="160" height="55" as="geometry" />
        </mxCell>
        <mxCell id="kIT15DTywkXecoPjwoW1-188" value="CANCHAS GRANDES" style="rounded=0;whiteSpace=wrap;html=1;fontSize=25;" vertex="1" parent="1">
          <mxGeometry x="805" y="2450" width="150" height="60" as="geometry" />
        </mxCell>
        <mxCell id="kIT15DTywkXecoPjwoW1-189" value="CANCHA 1" style="rounded=0;whiteSpace=wrap;html=1;fontSize=25;" vertex="1" parent="1">
          <mxGeometry x="320" y="2912.5" width="160" height="55" as="geometry" />
        </mxCell>
        <mxCell id="kIT15DTywkXecoPjwoW1-190" value="CANCHA 2" style="rounded=0;whiteSpace=wrap;html=1;fontSize=25;" vertex="1" parent="1">
          <mxGeometry x="640" y="2912.5" width="160" height="55" as="geometry" />
        </mxCell>
        <mxCell id="kIT15DTywkXecoPjwoW1-191" value="CANCHA 3" style="rounded=0;whiteSpace=wrap;html=1;fontSize=25;" vertex="1" parent="1">
          <mxGeometry x="960" y="2912.5" width="160" height="55" as="geometry" />
        </mxCell>
        <mxCell id="kIT15DTywkXecoPjwoW1-192" value="CANCHA 4" style="rounded=0;whiteSpace=wrap;html=1;fontSize=25;" vertex="1" parent="1">
          <mxGeometry x="1280" y="2912.5" width="160" height="55" as="geometry" />
        </mxCell>
        <mxCell id="kIT15DTywkXecoPjwoW1-193" value="CANCHAS CHICAS" style="rounded=0;whiteSpace=wrap;html=1;fontSize=25;" vertex="1" parent="1">
          <mxGeometry x="805" y="2830" width="150" height="60" as="geometry" />
        </mxCell>
        <mxCell id="kIT15DTywkXecoPjwoW1-194" value="" style="rounded=0;whiteSpace=wrap;html=1;" vertex="1" parent="1">
          <mxGeometry x="247.5" y="2615" width="305" height="205" as="geometry" />
        </mxCell>
        <mxCell id="kIT15DTywkXecoPjwoW1-195" value="" style="rounded=0;whiteSpace=wrap;html=1;" vertex="1" parent="1">
          <mxGeometry x="567.5" y="2615" width="305" height="205" as="geometry" />
        </mxCell>
        <mxCell id="kIT15DTywkXecoPjwoW1-196" value="" style="rounded=0;whiteSpace=wrap;html=1;" vertex="1" parent="1">
          <mxGeometry x="887.5" y="2615" width="305" height="205" as="geometry" />
        </mxCell>
        <mxCell id="kIT15DTywkXecoPjwoW1-197" value="" style="rounded=0;whiteSpace=wrap;html=1;" vertex="1" parent="1">
          <mxGeometry x="1207.5" y="2615" width="305" height="205" as="geometry" />
        </mxCell>
        <mxCell id="kIT15DTywkXecoPjwoW1-198" value="Equipo 1" style="rounded=0;whiteSpace=wrap;html=1;" vertex="1" parent="1">
          <mxGeometry x="340" y="2595" width="120" height="20" as="geometry" />
        </mxCell>
        <mxCell id="kIT15DTywkXecoPjwoW1-200" value="Equipo 2" style="rounded=0;whiteSpace=wrap;html=1;" vertex="1" parent="1">
          <mxGeometry x="340" y="2820" width="120" height="20" as="geometry" />
        </mxCell>
      </root>
    </mxGraphModel>
  </diagram>
</mxfile>
